<svg xmlns="http://www.w3.org/2000/svg" width="200" height="200" viewBox="0 0 52.9 52.9">
  <path fill="#fff" d="m14.5 19.5-.2 17 4.8 5.6 7 1.9 9-2.8 4.1-11.4-3.8-11.4z" paint-order="markers fill stroke"/>
  <path fill="#00cd00" d="M13.8 21.4c0 3.4-2.5 1.6-3.3 1.8-.9.4 1.3 2 1.2 3 0 .3-.4.5-.6.8a8 8 0 0 0-1.6 4.7c-.2 2-1.2 4.8-.2 6l1 1.7 1.5 1.9c.5.7.9 1.6 1.5 2.3.8 1 1.8 1.8 2.8 2.7l2 1.6c.8.6 1.5 1.2 2.4 1.5.9.4 1.9.5 2.8.7 1.3.2 2.7 1 3.9.5 1.8-.8 4-1.3 5.9-2.2l2.3-1.6c.7-.5 1.3-1 1.8-1.6 1-1.2 1.5-2.7 2.5-3.8.5-.7.8-.4 2-1.7.3-.5.8-2.9 1.2-2.8 1.5.3-1.4-3.5-.2-5.7.7-1.3-.8-2.5-1.3-3.8-.3-.7-.4-1.6-.9-2.2-.3-.3 1.1-1.6.6-1.5-.8.4-3.4-1.3-3.8-1.3-1.7 0 2.1 4 2 6-.1 1.6-1.3 3-2 4.4-1 1.7-2.3 3-3.1 5-.3.7-.8 1.3-1.2 2-.6 1-1 2-2.1 2.4a12.2 12.2 0 0 1-10.7-.7c-.9-.5-1.1-1.9-1.6-2.9a14 14 0 0 0-3-4.2 8.7 8.7 0 0 1-2.5-6c0-2 2.4-3.7 2-5.6-.2-.6-1.3-1.8-1.3-1.4zM33 1c-2.4 0-8.6 3.8-8.3 5.4-.6 1.7.7 4.2-2.3 3.7a8 8 0 0 0-5.3 2.4c1.6.3 4-1 5.6.5 1.5.9 3.4 2.9 5 1 1.8-1.4 5.3-2.1 6.8-.8 1.2-2.7-3.4-2.5-5.2-3 .1-1.2 6-3.6 8-2.4 3.3 1.8 0-2.3-.8-3.1-.6-1-1.9-3.6-3.5-3.6z"/>
  <path fill="#ff0" d="M40.9 8.4c-.8 0-2 1.1-2.1 1.3-.4.5-.5 1.3-.4 2 .2.6.6 1.3 1.2 1.6.2.2.5.3.8.3.7.2 1.5 0 2.1-.5.6-.4 1-1.1 1.1-1.9 0 0 0-1.2-.4-1.6A3.2 3.2 0 0 0 41 8.4zM32 12.5h-.2c-.5 0-1 .2-1.4.4-.8.3-3.1 2-3.8 2.2-.5 0-1.1 0-1.7-.3l-3.4-2a4 4 0 0 0-3.4.3 18 18 0 0 0-2.7 2.5c-.3.4-.5.9-.5 1.4l.1.2a105.6 105.6 0 0 1 8.5 6.2c.3.3.6.3 1 .3.2 0 .3.5.2 1.2l1.8-.1c.8 0 .7-.2.7-.4s-.3-.4-.4-.6c0-.4.6-.4.9-.4.3 0 .6-.3.8-.5.4-.4 9.5-5 9.4-5.3-.4-.9-2.2-3-3-3.6-.2-.2-2-1.4-2.7-1.5H32zm7.3 6.8-.7.2s-.6.8-1.1.9l-1.1.2c-.3 0-.6.2-.7.4l.1 1c.1.4 0 2-.2 2.1C35 26 33 26.8 30.4 26l-2.6-.8c-.1.2 1.8 1.7 1.9 2 .1.4-7.8.3-7.3-.4l.7-.7c0-.2.9-.6.7-.7l-2.3.7-1.5 1-.5.4c-.3.2-1 0-.8 0v-.2c0-.2-.3-.3-.4-.4-.3-.2-.6-.3-.8-.6.1-.1.3 0 .4 0-.5-.6-1-1.1-1.4-1.8-.2-.4-.4-.8-.4-1.3l.1-.8.3-.6c0-.2.2-1.4 0-1.7-.2-.2-3.2-.6-3.5-.5-.2.1.5 1.4.7 1.7l.8 1.3.1.6c0 .4 0 .8-.2 1.3-.3.8-.8 1.5-1.2 2.2-.3.5-.6 1-.7 1.6a5 5 0 0 0 .3 2.7c.5 1.2 1.3 2.1 2.1 3l1.3 1-.1-1c-.1-.3-1.5-2.1-1.8-3a3 3 0 0 1-.3-1.6l.1-.2a3 3 0 0 1 2-1c.5 0 1 .1 1.4.4-.2.7-.5 1.3-.2 2 .1.4.8 1 1.1 1.3a7 7 0 0 0 2.6 1.6l2 .8h2.5l2.9.2 1.4-.3a13.5 13.5 0 0 0 3.7-2c.7-.5 1.1-1.2 1.3-2v-1.7c.6-.2 1.4-.3 2-.1.6 0 1.1.4 1.4.9v.4c0 .7-1.9 3.7-2.3 4.7l-.2.6a8 8 0 0 0 3-2.8c.5-.6.8-1.3 1-2 .3-.6.2-1.2 0-1.8-.2-1-.7-1.7-1.2-2.5a11.7 11.7 0 0 1-.9-1.9v-1c.2-.8.6-1.4 1-2l.7-1.7z"/>
  <path fill="red" d="M23 38.5s-.2 0-.2.2.2.3.3.5c.4.4 1 .7 1.5 1l1 .2c.8 0 1.7-.1 2.5-.5.6-.3 1.1-.7 1.5-1.3h-.2c-.7 0-1.3.3-2 .5-.6.2-1.3.4-2 .4l-1.1-.5c-.1-.2-.3-.2-.4-.3l-.8-.2z"/>
  <path fill="#030604" d="M35.8.4c-1.8.1-3.6.4-5.4 1l-2 .8-.7.5.2-.9.6-.9s0-.1-.1 0a7.3 7.3 0 0 0-3 2.8 9 9 0 0 0-1.8 4.2v1.3c-.2.3-.6.5-.9.5l-2.4.3a3 3 0 0 0-1.4.5l-.5.2-1.7 1-.9.9s-.2.3 0 .4c0 .2.3.2.5.3h.7l-.9.7-1.4 1.3-.2.6c0 .4-.2.7-.4 1 0 .1-.2.2-.3.1-.3 0-.4-.2-.6-.4l-1-1.6-.6-1.4v2.8c.2 2 1 3.9 1.8 5.7v.2c-.1.3-.3.6-.6.7-.4.2-.9 0-1.2 0a4 4 0 0 1-1.3-1.3v-1l-.1-.2-.2.1c-.2.3-.2.7-.3 1 0 .7 0 1.4.2 2.1a3 3 0 0 0 1 1.6l.6.3c.1 0 .2-.1.1-.2l-.1-.3.5-.1v-.4l-.8-.6c-.2-.2-.4-.3-.5-.6.5.4 1 .7 1.6.8.3 0 .7 0 1-.3l.2-.4c.4 0 .7-.2 1-.5v-.8l-.8-1.3-.5-.8h.2l1.1.5 1 .2c.3 0 .5-.2.7-.3.4 0 1 0 1.4.2l1.9 1 .7.4c-.4.2-.7.4-.9.8-.1.4 0 1 .2 1.4.3.5.8 1 1.4 1 .4.1.8 0 1.2-.3l.1-.1c0-.3.1-.6.3-.8h.6l1.1.4c.3 0 .5.1.8 0h.1c.5-.6.8-1.4.8-2a4 4 0 0 0-.8-2.3l-1-1c0-.2-.1-.3-.3-.3 0 0-.1 0 0 .2l.1.4a8.8 8.8 0 0 0-2.4-2.3c-.5-.4-1.1-.7-1.8-.8h-.1v.2l.8.5a18.8 18.8 0 0 1 4.1 4.2l.5.5c.2.2.2.5.1.8l-.2.5c-.2.2-.5.3-.8.2-.3 0-.4-.3-.6-.6l-.2-.5c-.7-1.5-1.6-2.9-2.8-4a7.9 7.9 0 0 0-3-1.8h-.2c-.1.4-.2.8-.5 1-.1.2-.3.3-.6.3-.4 0-.7-.2-1-.4l-.4-.2a6 6 0 0 1 1.1-1.9l1.4-1.3 1.5-1a2.8 2.8 0 0 1 2-.1c.8.2 1.5.6 2.2 1 .7.5 1.4 1 2.2 1.3.6.2 1.3.2 1.8 0 .8-.3 1.5-.8 2.2-1.3.6-.4 1.2-.9 2-1.1h1.4c.8.3 1.5.7 2 1.3a15.5 15.5 0 0 1 2.4 2.6c0 .4-.2.7-.5.8-.4.3-.8.4-1.2.2a.8.8 0 0 1-.5-.6v-.2c-.6-.2-1.2-.2-1.7 0-.7.4-1.2.9-1.8 1.4-.7.8-1.3 1.8-1.9 2.7v.3c-.1.5-.4 1-.7 1.3a2 2 0 0 1-1 .8l-.5-.1c-.2-.3-.2-.6-.2-1v-.1c1.3-2.1 3-4 5-5.3l-.3-.2c-.4 0-.7.2-1 .4a11.7 11.7 0 0 0-2.1 1.8c-.3.1-.5.2-.6.4-.5.3-.9.8-1.2 1.3-.3.5-.5 1-.5 1.7v.4c0 .6 0 1.1.4 1.5.3.4.9.6 1.3.5.5 0 1-.3 1.3-.6.1.4.4.9.9 1a2 2 0 0 0 1.6.1 2 2 0 0 0 1.2-1c.1-.3 0-.8-.1-1.1l-.5-.6c-.3 0-.6 0-.9-.2l.7-.4.9-.5c.3-.3.8-.6 1.3-.7h3.3l.6-.4.5-.3v.1l-.2.7-1 1.6.2.6c.4.4.9.7 1.3.9.5.2.9.3 1.4.3h.2l-.7.6v.3l-.2.3h.8l-.2.3h.1l1.2-.7a5.5 5.5 0 0 0 1.2-4.8h-.2c-.2.7-.5 1.4-1 2a4 4 0 0 1-1.2 1c-.3 0-.7 0-1-.2-.2 0-.4-.3-.6-.4.1-1 .5-2 .8-3 .4-1 .7-2 .7-3.2l-.1-1-.1-.7c0-.1-.2-.2-.3-.1-.2 0-.3.3-.3.4-.3.6-.5 1.3-.9 1.8l-.4.5c-.3-.1-.5-.4-.6-.7-.5-.8-.9-1.6-1.5-2.3l-.8-.6-.6-.4h1.8a8.4 8.4 0 0 0-1.8-1.6c-1.3-1-2.7-1.5-4.1-1.9-.1 0-.2 0 0 0 .8-.7 1.7-1.2 2.7-1.5 1-.3 2-.4 2.9 0l.7.2 1 .4c.1.2.2.4.1.6l-.3 1.2v1a3.3 3.3 0 0 0 4 2.5 3 3 0 0 0 1-.5c.7-.4 1.2-1.1 1.3-1.9.2-1.1-.2-2.3-1-3-.5-.5-1-.7-1.7-.7h-.3c-.5.2-1 .2-1.3 0-.5-.3-.8-.8-1.1-1.2-.5-.8-.9-1.6-1.6-2.3l-.5-.4-.8-1c.2 0 .4.2.6.4l.2.1.2-.3-.5-.4c-.4-.2-.9-.4-1.2-.7l-.2-.3c.1-.2.3-.2.5-.3 0 0 .1-.1 0-.1l-.8-.1.1-.1.7-.5.6-.4h-.2zM33 1.8h.7c-.4.2-1 .2-1.4.3 0 0-.2.1-.1.2l.2.1.8.1H33l-1.3.1-.2.1c0 .1 0 .2.2.2l.8.1c.8 0 1.6.3 2.3.7.8.4 1.4 1 2 1.7l1.5 2 .2.7h-.4a5 5 0 0 0-3-1.2 7.3 7.3 0 0 0-4.6 1.5s-.1.1 0 .2h.2l.2-.1-1.7 1-.3.4c.1.3.3.4.6.5l1.9.5c.6 0 1.2.2 1.7.6.2 0 .4.2.5.3.3.2.6.3.8.6v.1h-.7c-.3 0-.6-.2-.8-.3-.7-.3-1.4-.3-2.1 0-.9.2-1.6.7-2.4 1.2-.7.5-1.4 1-2.1 1.3h-.5l-1.3-.7-1.2-.7-.5-.4c-.6-.5-1.2-.7-1.9-.8-.9-.1-1.8 0-2.7.2l-1.1.2c.7-.6 1.5-1 2.4-1.4l2.4-.6 2.4-.1c.3-.3.3-.6.3-1V9l.1-.2.1-.6c.1-.8.3-1.6.7-2.3l.3-.6.1-.3.6-.6c1-.8 2.2-1.5 3.4-2 1-.3 2-.5 3-.5zm7.9 6.8c.6 0 1.2.2 1.6.5l.6.6c.1.3 0 .6-.2.7a2 2 0 0 1-.7.4 2 2 0 0 1-1.5-.4c-.3-.2-.5-.4-.6-.7-.1-.2-.2-.6 0-.8.2-.3.5-.3.8-.3zm-1.7.8c.3.5.7 1 1.2 1.3.4.4 1 .7 1.5.7.4 0 .9 0 1.2-.4l.3-.3v1a3 3 0 0 1-1 1.4 2 2 0 0 1-1.2.4h-.7c-.6-.1-1-.4-1.4-.8-.5-.6-.7-1.2-.6-1.9a2.2 2.2 0 0 1 .7-1.4zm-.3.9c-.2 0-.2.1-.2.3 0 .4.2.8.3 1.1.3.5.6 1 1 1.2l.8.2c.8 0 1.7-.3 2.2-1l.2-.3H43l-.3.3a2.2 2.2 0 0 1-3.3-.7c-.2-.3-.2-.6-.3-1l-.2-.1zm-9.2 4.5-.8.3-2.4 1.1h1.3c.6 0 1.2-.4 1.7-.8l.4-.4s0-.2-.2-.2zm-7.2 0-.1.3c.1.3.4.5.6.6.3.3.7.5 1.2.6h1.1c.1 0 0-.2 0-.2l-.7-.4c-.4 0-.7-.2-1-.3l-1-.5h-.1zm0 1.2c-.2 0-.3.2-.2.3l.6.5 1 .5.3-.1-.2-.4-.7-.5-.9-.3zm6.9 0c-.4 0-.8.3-1.2.6l-.4.6c.3 0 .6 0 .8-.2l1-.6V16h-.2zm6.1 4.7c-.3 0-.5.3-.7.4l-.7.7-.1.2h.2c.2-.1.4-.2.6-.1.3 0 .3.3.4.5V24c-.2.5-.5.9-.8 1.2a3 3 0 0 1-1.2.5c-.6.2-1.2.2-1.8 0-1 0-2-.3-3-.7l-2.4-.3c-1.3 0-2.6.4-3.8.8l-1.5.4c-.8.1-1.5 0-2.2-.4a2.8 2.8 0 0 1-1.5-2c0-.4 0-1 .2-1.4h.5c.1-.1 0-.3 0-.4l-.8-.7c-.2 0-.3-.1-.4 0-.1 0-.1.3 0 .4v.1c-.5.9-.6 1.9-.3 2.8.3.7.8 1.4 1.4 1.8-.1 0-.3 0-.4.2l.2.3.8.5.4.3h-.1l-1.2-.1-1.4-.2-.7.1c-.1 0-.2 0-.3.2-.1 0 0 .2 0 .2h1.9c.4.4 1 .6 1.6.5.6 0 1.1-.4 1.6-.8.7-.4 1.4-1 2.1-1.2l.6-.2.9-.2c-.6.3-1 .8-1.3 1.2-.4.4-.8.8-1.3 1l-1 .5v.2l.2.1.8-.2 1.1-.5c0 .5.4.9.8 1.2l2 1c.3.2.6.5.6.8v.6c0 .6-.4 1-.8 1.4a4 4 0 0 1-3 .7c-.5 0-.8-.2-1.1-.4a7 7 0 0 1-2.9-2.4 2 2 0 0 1-.3-.8l.3-.9.4-.3a3 3 0 0 0-1.5-.7 3 3 0 0 0-2.1.6c-.4.3-.7.7-.7 1.2 0 .4.2.8.4 1.2.2.7.7 1.3 1.1 2l.8 1.4v.8l.1.3c1.2 1.7 2.4 3.5 3.3 5.4l.1.3c.8.7 1.7 1.1 2.6 1.4l3.3.6h1.1c1.4-.1 2.8-.3 4.1-.8l1.6-1c1.1-1.8 2-3.7 3.4-5.4l.2-.3a8 8 0 0 1 1.9-4.2c.3-.3.5-.7.6-1.1.1-.5 0-1-.2-1.3-.4-.6-1.1-1-1.8-1a2.5 2.5 0 0 0-2.2.7c.3.2.6.5.6.9 0 .5-.2 1-.4 1.3-.5.6-1 1-1.7 1.5l-1.3.7a3 3 0 0 1-1.4.4c-.8 0-1.5-.2-2.1-.7-.6-.3-1-.8-1.2-1.5v-1.1a2 2 0 0 0 1.5-.6c.6-.4 1-1 1.5-1.5.2-.2.5-.3.8-.3.3 0 .5.3.7.4.3.1.6.3 1 .3 0 0 .2-.1.1-.2l-.4-.3-1.7-.8c-.1-.6-.5-1.2-1-1.5l-1-.4a11.8 11.8 0 0 1 5.2 2.6l.9-.1 1.5-.6.5.1h1c.1 0 .2-.1.1-.2l-.4-.2h-1.9c-.4 0-.7 0-1 .3h-.7l.4-.4 1.2-.7s.1 0 0-.1h-1c1.1-.4 2-1.5 2.2-2.7 0-.6 0-1.3-.4-1.9V21l-.3-.2zM26 25.2a10.7 10.7 0 0 1-.7.1h-.1.8zm15.6.2c-.6 0-1 .2-1.6.4-.2 0-.4.2-.5.4 0 .2 0 .4.3.4h.9s-.2.1-.1.2l.2.2-.2.2v.1l.4.2v.3l.1.2c-.1 0-.3 0-.3.2s.2.3.3.4c.4.4.9.7 1.1 1.2l.2.5-.5-.2v.3l.1.5s-.2-.2-.3 0v.2c0 .2.2.3.3.5h-.3v.7c-.2 0-.3.1-.3.3l.2.8 1 2 .3.6.2.4-1.1-1.1-.6-.5h-.2v.3l.7 1.5v.9l-.2-.4-.3.1v.8l-.1.6-.3-.6c-.1 0-.3 0-.3.2v2c0 .1 0 .2 0 0l-.2-.7-.3-.7-.2-.3h-.2v1.9c0-.2 0-.4-.2-.6 0-.1-.2-.1-.2 0l-.1.5v1.3s-.1-.2-.2-.1c-.2 0-.2.1-.2.2l-.3 1.3v-1h-.3l-.1.4v.2c0-.1-.2-.2-.3 0l-.2.6v.4h-.3l-.1.2c0-.1 0-.3-.2-.5h-.3l-.2.6c-.2.5-.2 1-.3 1.6l-.1.5v-2.3l-.1-.2c-.2 0-.3.2-.3.3l-1 1.6-.2.2-.2.3.4-.8-.1-.3c-.2 0-.2.2-.3.3l-1.1 2.3-.1.1V47c0-.1.1-.3 0-.4l-.2.1-.3.7h-.2l-.2.4-.5 1 .1-.7v-.5c0-.1-.1-.2-.2-.1l-.4.5c0-.1 0-.3-.2-.2-.2 0-.2.2-.3.3l-.4.8V48l-.3-.2-.3.5s0 .1 0 0h-.3l-.3.3-.1.2-.2-.2c-.2 0-.2.2-.3.3l-.1.1-.1-.2c-.2 0-.2.1-.3.2l-.2.4.2-.5-.2-.2-.3.3-.4.4-.1.2-.1.3-.2-.6h-.3l-.2.4v.7c-.2-.4-.2-1-.3-1.4 0 0 0-.2-.1-.1l-.1.2a12.2 12.2 0 0 1-.3 1.1v-1l-.3.4H25s-.1-.3-.3-.3h-.2l-.3.1-.2.1c-.2-.2-.4-.5-.7-.5h-.4l-.3-.6v.4l-.2-.3-.4-.8h-.3v1.1l-.5-1c-.1-.2-.3-.2-.3 0v.3l.1.7-.3-.6-.4-1-.2-.2c-.2 0-.3 0-.3.2 0 0 0 .1 0 0l-.2-.5c0-.1-.2-.1-.2 0V48l-1-2.2s0-.1-.1 0v.3l.1.5-.5-.8-.7-1.1-.4-1-.2.1v.8l.2 1.5V46l-.4-1.4c0-.4 0-.8-.2-1.2 0 0-.1-.1-.2 0-.2 0-.2.2-.2.3a4.7 4.7 0 0 0 .3 1.8l-.4-1.3-.3-1s-.2-.2-.4-.1c-.2 0-.3.3-.4.5v.3l-.4-1.5c0-.1-.1-.2-.3-.2l-.1.3-.1.5v-.7l-.1-.8-.2-.2c-.2 0-.2.2-.2.3v.9c-.2-.4-.2-.7-.2-1l-.3-1.7c0-.1 0-.3-.2-.3-.1 0-.2 0-.3.2l-.2.7v-1.3l-.1-.7-.2-.2-.2.2v-.6s-.2-.1-.2 0l-.2.6-.1.4v.2-1l.2-.9c0-.1-.2-.2-.3 0-.2 0-.2.3-.3.5v.9c-.2-.6-.2-1.2-.2-1.8l.1-.7.3-.9s0-.2-.2-.2-.3.3-.5.4l-1 1.5v-.1l.4-1.4.2-.4.5-.9.7-1.7-.1-.3-.2.1v-.5h-.3c-.2 0-.3.3-.4.4l-.2.4c0-.4.2-.7.3-1.1l.4-1.3v-.3c-.1-.3 0-.5.2-.6l1-.7v-.2h-.8l.6-.4c.2 0 .3-.1.4-.3l-.1-.2h-.4c.2 0 .3-.2.4-.4h.3c0-.2-.1-.3-.2-.3h-.4a1 1 0 0 0-.8-.1c-.4.1-.8.4-1 .8-.4.5-.7 1-.8 1.6v.5H9l.4-.4c0 .4 0 .8-.2 1.2-.1.8-.4 1.6-.7 2.4l-.3.9-.6.7c0 .1 0 .3.2.3l.6-.1.5-.3a9 9 0 0 0-.7 3l.3 1.5c.2 0 .3-.2.3-.3 0 .6.1 1.1.3 1.7 0 .2.1.5.3.7 0 .1.2.2.3.1v-.4l.1-.8v-.4l.3 1c0 .6.2 1.2.3 1.7l.3.7h.3l.2-.5v-.7l.4.8c.2.7.3 1.5.6 2.2 0 .2.1.4.3.5h.4v-1l.4 1.2.6 1.3.4.5h.3v-.6l-.2-.6.5.8 1.3 2 .6.6.7.6c.1 0 .2 0 .2-.2l-.3-.6-.2-.5.7.4c.8.6 1.4 1.3 2.3 1.9l.6.3-.3-.5 1.4 1 .6.2s.1-.1.2 0c0 0 .1 0 0-.1v-1.1c.3 0 .5.3.6.4l.6.6v-.8l.7.7.7.7.2.1c0 .2.2.2.3.2l.2-.3c0 .2.3.2.4.1.3 0 .6-.3.8-.6l1.4-1.4.2-.1-.2.4-.2.6c0 .1 0 .2.2.2l.3-.2 1-1v.2l-.3.6-.1.5h.3c.4 0 .6-.3 1-.5l1-.7.1.2c.3 0 .4-.2.6-.3A17.4 17.4 0 0 0 35 48l.2-.4.3-.5-.1.8-.3.7.1.3c.2 0 .3 0 .4-.2a8.6 8.6 0 0 0 2.1-3.1v.7l-.3.5c0 .1.2.2.4.1l.5-.6 1-2.2c0 .2-.1.5 0 .8 0 0 0 .2.2.1l.2-.4.5-1.5v-1.4h.1l.2.7.1.7.5-.8.3-.7v.6h.3c.2-.3.2-.6.2-.9.1-.6 0-1.3.2-2l.1.4.2.9h.3l.1-.4a9.2 9.2 0 0 0 0-2.3l.7 1.3c0 .1.2.2.3.1v-2.2l.3.9.3-.1V37a7 7 0 0 0-.6-1.9 2 2 0 0 0-.4-.6L43 34c.3 0 .6.2.9.4l.8.5-.2-.7c-.4-.9-.9-1.7-1-2.6-.1-.2-.2-.4-.1-.5l-.1-.9-.9-1.7.5.4c.2.2.4.4.6.4l.2-.1v-.6c-.3-.6-.7-1.2-1.1-1.6-.3-.3-.6-.6-1-.7a1 1 0 0 0-.5 0c.3 0 .6-.2.8-.4.1-.1.3-.2.2-.4l-.3-.2h-.2zm-31 .1s-.2 0-.3.2c0 .2.1.3.3.4a2.7 2.7 0 0 0 2 .6l.2-.3c0-.2-.2-.3-.4-.4-.2-.2-.5-.4-.8-.4H11l-.4-.1zm15.8.4c.5 0 .9 0 1.3.2a2.7 2.7 0 0 1 1.3.7l-1-.2c-.5 0-1-.2-1.5-.1h-.3c-.3-.2-.6-.1-1 0l-1.6.3h-.3v-.4h.1c1-.3 2-.5 3-.5zm-7.3.5c.2 0 .5 0 .8.2H19l-.4-.1h.4zm-2.9 3c.2 0 .3.2.3.3.3.6.4 1.3.6 1.9l.4.7.3 2.4c.3.7.5 1.4.6 2.2v.6c-.3-.3-.4-.7-.6-1l-.2-.6c-.5-.8-.7-1.7-.9-2.5l-.5-2-.4-.5-.1 1.1-.2.2-.3-.5a2 2 0 0 1 0-1.1c0-.2.2-.3.3-.4.1-.3.3-.6.6-.8h.1zm19.6 0c.3 0 .5.1.6.3.4.3.6.7.7 1.2v.7l-.3.7-.5-1.2-.1-.3c-.4 1.6-.8 3.3-1.4 4.9l-1 1.8h-.1v-.8l.3-.5 1-4.7.6-1.1v-.9s.1-.2.2-.1zm-25.1 1.3c-.2 0-.3.3-.3.4l-.2.6c.2-.2.5-.4.6-.7v-.3h-.1zm30.7 1.1-.1.2s0 .2.2.2c0 0 .1-.1 0-.2l-.1-.2zm1.4.9zm-17 .1c.4 0 .7.2 1 .3l1.4.8.1.2H24h.1c.2-.3.5-.4.8-.5l1-.8zm7.8.2c.2 0 .2.2.3.3v1a.9.9 0 0 0-.9-.5c-.3 0-.6 0-.8.3v.6c.2.2.2.4.2.5.4 1 .6 2 .5 3 0 .4 0 .9-.2 1.3-.2.5-.5 1-1 1.5a5 5 0 0 1-2.4 1c-1.2.3-2.4.3-3.6.3-1 0-2.1 0-3.1-.3-.9-.3-1.7-.7-2.4-1.4l-.5-.7c-.3-.4-.5-1-.5-1.5 0-1 .3-2 .4-3 .1-.4.2-1 .1-1.4-.1-.2-.3-.4-.6-.3-.3 0-.5.3-.7.5l-.1-.8v-.3h.3c.3 0 .6.2.8.4l1 .5c2.4 1 5 1.3 7.6 1 1.7-.1 3.4-.6 4.9-1.5.1-.2.3-.4.6-.5h.1zm-2.2 2.8c-.3 0-.6.3-.7.5-.2.3-.4.7-.4 1-.2-.2-.5-.5-.8-.5-.3 0-.5.2-.7.5l-.2.5c-.5-.6-1-1.2-1.7-1.5-.4-.2-1-.3-1.4-.1h-.2c-.3 0-.7 0-.9.3-.3.3-.4.7-.6 1.1 0 .2 0 .3-.2.4l-.3-.8c0-.2-.1-.4-.3-.5-.2 0-.4 0-.5.2l-.6.5v-.2l-.1-.3c0-.4-.2-.8-.5-1a.8.8 0 0 0-1 .1c-.2.3-.3.7-.2 1l.1.6c.2.9.7 1.7 1.4 2.3.9.8 2 1.2 3.1 1.3h2.9a5 5 0 0 0 3.5-1.7c.6-.7 1-1.7 1-2.6l-.2-.8a.5.5 0 0 0-.5-.3zm-8.5 3c.5 0 1 .2 1.5.4.7.2 1.4.5 2.1.5.6 0 1.1-.3 1.6-.6l.2-.2c.2 0 .5-.2.8-.1 0 .2-.3.4-.4.5-.5.4-1 .7-1.5.8-.2.1-.4.2-.7.1h-.4c-.7.1-1.5-.2-2.1-.6-.4-.2-.8-.5-1.1-.9zm-1 12 .4.5c-.2-.1-.3-.4-.4-.6z"/>
</svg>
