<svg xmlns="http://www.w3.org/2000/svg" width="200" height="200" viewBox="0 0 52.9 52.9"><path d="M-604.8 146c1.7.8 1.6 0 .4.8-1.2 1.8-.3 7.3-.5 10.6.3 17 1.5 33.9 2.1 50.8-.7 3.9 3.5 5.5 6.2 6.8 2.1 2.4 7.8 3.5 6 7.6.5 1.4-.7 4.6.4 6.9 0 1.4 3 5 4.2 5.6.8.5 1.5 2.2 2.5 2.6 9.8.1 19.7 1 29.6-.3 3.8.9 6.5-.7 8.6-4 2-2.5 2.3-3 3-6.4.8-2.6-1.1-5.3-2.1-1.4-.7 2.1-1.5 2.6-3 5-1.5 1.1-4.3 6.3-5.7 4.8.2-3.5 3.5-6.2 4.5-7.7 3.2-3 5.2-7 8.5-10 2.9-2.2 7.7-2.7 9.4-6.1 1.9-4.8 1.4-10.1 2-15.1 1.4-15.6 1-31.3.8-47 1.2-5.4-5.6-2.7-8.7-2.6 1.8.2 3-.1.6.5-.8 2.3.6 3.8.2 6.3.3 3.3-.6 8.2-.6 12.2.1 3.8-.5 7.6-1 11.4-.9 1.8-.6 7.3-2.6 6.7a82 82 0 0 0-5.6-25.1c-1.6-3.3-4.8 1.3-7.5 1.5-3.6.2-5.8 3.4-9.2 3.5-1.2 19.9-.8 39.8-2.2 59.7-5 1.3-2-6-2.6-8.8.4-10.4.8-20.8-.2-31.1-.1-4.1-.6-8.4-1-12.3-1.2 0 .4 4.2-1 .6 0-3.7-2.2-5.2-2.6-8.7-.3-1.5-4.8-4.5-4.3-4.1-2.3-.3-6.6 1.5-7.6-1.8 0-3.3-2.6-4.5-2.8-1-2.5 8.9-4 18-5.2 27-1.7 1.4-1.7-4.9-2.4-6.5-1.5-8-3.3-15.9-3.7-24 .2-3.2.5-7.5-4.2-6.6l-2.7-.3zm3.4 1c-.4.4-.7 1 0 0zm-2.2.3c.6 0 1.4 1.3 0 0zm1.7.3zm-.2.2zm0 18.3zm-.3 1.4zm2.5 25.5c-.3 2.2-.2 4.8-.1 1.1v-.6zm-1.5 7.8c0 .9 0 .9 0 0zm.6 1.1v.5zm-1.4 6.1v.2zm12 12.2c2.7 2.3 4.6 5.7 6.8 8.5.5 1 1.3 1.9 2 2.8.6 1 3.3 5.6-.6 3.3-3.6-3-6.1-7.1-7.5-11.5-1.3-2 .2-1.7.3-2.3 0-.7-.8-.4-1-.8zm21.8 17.3c3 .1-.2.1 0 0z" style="fill:#d3032f;stroke-width:.264583" transform="matrix(.133 0 0 .124 101.7 15.3)"/><path d="M-568 299c-7.6-22-37.4-15-43.8-38.8-2.5-12.5-7.9-28.6 2.7-39-17 1.4-23.6-19.3-27.2-28.5-7.2 7.2-15.5 10.6-7.4-2 2.7-10.4 4.8-33.7-5.4-13.2-6.5 8.7-16.4 23.8-12.3 3.6 1.7-15.2-35.8 18.3-22.7-6 1.9-10.3 17.7-29.5-3.2-22.8-8.6.7-27.3 2.3-10-6.5a417 417 0 0 1 59.4-35c3-22-20.1 5.3-32.8-3-1-8.4 33.9-8 30.3-19.8-6.7-2.2-19.9-9.2-4.5-7.4 11.5 6.4 24 14.7 33 24-8.8-3.4-28.4-22.8-22-1 2.7 20.4 20.6 40.1 42.6 36.6 11-1 31.4-7.6 11.3-14.5-13-8-19-24.5-13.8-37.5-8.7-2.6-9-27.4-3.4-8.5 7.6 12.9 24-7.3 36.6-.5 12.7 3.2 25 10.5 29-6.8-1.7 12.5-11 18.6-6 31.9 3.2 18-41 25.7-14.1 33.7a38 38 0 0 0 49-21.4c5.9-11 8-33-7.5-17.3-8.8 6-15.8 5.7-3.3-1 7.7-4.3 31.4-26.1 31.4-14.8-14 1.3-13.7 13.4 0 13.5 7.5 2.8 33 12.7 10.9 11.5-9.6 2.5-29.2-16.5-22.9 3.2 23.8 12 48 24 68.5 41-12 2.6-41-8.8-25.8 11.8 3.7 9.9 15 28.5-3.8 17-12.9-8.4-18.4-5.6-15 9.5-2.5 8.7-25.9-42.7-20.2-13.5-2 8.1 13.3 32-3.6 17-9.2-8.3-4.8 21.2-18 23.2-20.9 1 1 15.9-6.6 29a37.2 37.2 0 0 1-36 36.7c-4.8 3.7-8.3 15.2-13.3 15.6zm17.2-28.5c15.2 6.5 29.8-34.8 11.9-13.2-14.4 9-35.2 7.7-50.5 3.1-6.9-3.7-19.3-19.3-11.1-1.7 9 18.7 33.2 10.1 49.7 11.8zm-35.8-18c-2.3-23.8 23-11.4 37.3-15.1-5.4 14.4 11.8 21.2 12.3 4 6.8-18.2 7.8-37.2 9-56.3-2.6-14.6 10.3-46.4-15.4-38.8-11.4-2.3 4.5 15.3-9.8 14.1-15.4 1.3-7.8 19.2-10 30-1.9 8.3 2.4 32.4-4.1 31.7.6-15.3 1.4-38.7-1.4-49.8-.7 1.1-2.8-12.8-7.5-13.1-17.4 3.4-1.3-17.6-18.6-12.4-17.7-6.7-7.2 16.5-9.6 25.8 2.3 19.3-.9 39.3 4.5 58 4.2 6.3 2.5 25.8 13.3 21.8zm5-2.6c2.3-17.2-8.2.9 0 0zm8-.1c2.7-15.2-12.2-.1-2.1.4zm13-.2c8.9-2.2-8.4-15.2-3-.2l1.6.7zm8 .2c7.5-14-12.9-2.6 0 0zm-15.2-.3c2.6-18.7-10.3-.4 0 0zm41.1-18.8c-1.3-3.5-1.5 3 0 0zm-88-55c-5.3-13.4 3.7-46.7-12-43-2.8 15.1.1 32.3 12 43zm100.8-4.1c8.9-9 12.2-39.3 5-39.6-14.5 9-3.5 28.7-7.6 42.7zm-58.8-13.5c2.6-13-19.2-7.2-7.3-.3 4.2-9.5 2.5 1.3 7.3.3zm8.4-.2c.9-15.7-11 3.4 0 0zm6.9 0c3.3-18-12.2 4.1 0 0zm5.3.2c8-18-10.4-5.3 0 0zm9.8-47.7c-6-2.8-9.5 2.5 0 0zm-35.5-.7c-3.5-4.6-21.8 1.8-4.1.5l4.1-.5zm2-18.2c10 .1 38.8 1 14.8-4.1-6-2.7-37.8 5.6-14.8 4zm82.3 185.7c.3-.7 0 1.2 0 0zm-146.3-.7c.3-1.3.1 1.6 0 0zm175.5-22.6c.2-3.7.8 2.5 0 0zm-203.3-.2c.3-.7 0 1.1 0 0zM-710 132.4c8.6-6.3 38.4-30.2 33.7-9.6-9.8 4.2-26.6 11.7-33.7 9.6zm287 .6c-10.2-.9-45.7-8.3-29.2-18 8.4 3.8 28.6 13 29.3 18zm31.9-38c-1.2-1.6 1.8 1 0 0zm-349.2-.5c1-2 3-1.3 0 0zm117.7-12.3c-12.7-17.3-37.6-19.4-57-24-9.8 7.5-34.5 16.2-39.3 11.5 12.7-11.4 26-28.5 44.9-27.6 16.6 6.3 28.9 21.7 48.2 22 11.5 5.4 26-17.4 7-12-19.6-.3-31.9-23.6-53.2-16.2-13.4 3.4-27.8 5.6-40.6 9.4 10.3-19.5 37.3-31 56.4-17 12.5 4.3 34.5-5.1 43 .7-7.6-8-24.3-10.7-29.2-17.5 16.8-6.3 31.3 19.8 39.5 20.5 5.3-9.8-15.5-32.7 1.9-14.6 5.3 5.9 12 28 12.9 8 3.5-19.4-9-34.8-16.9-51.1-5.2-14.3 18 8.2 20.3 13 17.3 15.9-2.3 40.3 10.5 55.6 9 21.2 28.9-10.4 19.5-22.6-4.4-20.9 10-41 27.2-51-1.6 18.1-20.4 32-16.4 51.9-2.4 9.5 5.6 19.6 7.6 5 3.3-9 16.1-25 7.4-6.6-1.5 8.5.5 23.2 6.7 7.6 4.7-9.9 30.6-22.1 30.9-13.4-7 2.9-31 13.5-25.3 15.8 13.4-9.2 31.2 8.1 43-2.8 19-12.3 42.7.7 53.2 18-11.6-1-35.5-10.3-52.7-9.3-18 3-30.4 22.2-50.9 16 4.3 22.3 30.2 10.9 43.7 4.3 11.8-14.4 32.7-18.1 46.6-4A115 115 0 0 1-411.8 72c-20.3 3-34.6-17.4-53.7-12-15 7-36.1 5.5-44.6 22.1-10-11.6-20.4-42.6-35.2-17-6.7 7.9-13.2 8.4-5.7-2.3 2.3-11 36.2-15.6 14.6-25-16.7-1.6-21.7 27.7-31.1 26.7-4.7-12-30.6-40.3-34.4-17 11.8 3 24 14.4 23 24.5-10.7-8.4-26.3-32.5-32.5-5.7-4.1 4.7-6.7 12.3-11.2 16zM-610 49c6.1-7-5.6-19.2-11.3-9.2-11.6-.5 8.5-13.7-7.6-7.3-4.4 13 12.3 13.6 18 9.9-11.4 18-28-20.7-35.5-8C-635.5 42.6-625 52.7-610 49zm100.1 0c9-1.7 38.6-20 14.8-16.6-6.3 7.9-21.7 23.3-28.2 8.2-6 10 7.7 9.5 13.4 8.3zm-.1-4.4c12.4-2 5.5-19.6.9-10.4 1.6 14.7-15.5-9.3-10.2 8.6 1.7 3.3 6.3 3 9.3 1.8zm-56.5-2.8c-11.4-17.6 4.2-37.9-2.4-57.6-1-21.3-12-41.8-29.2-54.1 15.2-5.9 23.6 19.3 32.7 21.5 3-8.8 30.6-30 29.2-19.7C-556-56-562.7-30.4-563.8-8.5c-3.9 17 9.2 34.7-1.9 50.2l-.3.3-.4-.3zM-694.9 14c7-9.3 15.5-16 24-4.5 24.5 3.5-21.4 2.8-24 4.5zm256.8 1.2c-7.6-4.6-45-2-20.7-7.4 6.3-13.2 17 2.1 20.7 7.4zM-605.2.2C-621-4.5-635.1-12-632.3-31c-15.8 6.2-31.6 8-41.2-10.2-7.6-10.1-23.6-24.8-33-24 4.6 16.5 7.7 45.8 31 41.7 8.5.6 29.2-.5 11.6 8.5-4.2 10.4-16 23.2-24.1 7.7-16.3-17.4-28.7-39.9-26-64.4 2.5-14.6-.1-50.3 23.2-42.7 26 13.9 52.3 29.8 70.8 53.2-9.5-4.7-29-16.2-42.3-22.3a79.4 79.4 0 0 0-38.2-6c20 3.4 34.5 16.6 36.8 37.4 3.7 20 29.5 12.5 37.2 21.7 5.5 12 26.5 19 24.5 32.3l-3.2-1.7zm72.6.8c4.9-13.7 24.2-24.3 28.9-36.3 18.1 5.1 37.3-9.1 38.6-27.8-1.7-20 30.3-22.5 33.4-27.5-21.8 1-42.7 6.1-61 18.7-7.5 4.2-25 14.2-11 1.3a260.7 260.7 0 0 1 64.9-44.4c22.7-.8 19 34 20.9 50 2.1 26-15.7 47.4-32.8 64.7-14 3.5-14.5-18-25.6-21.5 18.5-1.7 41.6 2.7 44.7-21.6 3-8.1 13-32-3.9-18.9-18.5 7.4-24.5 31.6-43.2 37.2-11.8-8-27.3-10-22.9 9.4-3 11.5-22.1 12.2-31 16.7zm11.6-58.2c-.2-7.3 9.3-28.1 3.9-9.8-1 1.8-2.4 10.6-3.9 9.8zm-90-.9c-4.1-8.6-5.8-18.7-.9-4.6.3.2 3.5 8.5.9 4.6zm-57.6-61.8c-1.4-1 2.2 1.1 0 0zm-4.2-2.5c.4-.6.7 1 0 0z" style="fill:#020101;stroke-width:.264583" transform="matrix(.133 0 0 .124 101.7 15.3)"/></svg>