<?xml version="1.0" encoding="UTF-8" standalone="no"?>
<!-- Created with Inkscape (http://www.inkscape.org/) -->

<svg
   width="200"
   height="200"
   viewBox="0 0 52.916665 52.916668"
   version="1.1"
   id="svg5"
   xmlns="http://www.w3.org/2000/svg"
   xmlns:svg="http://www.w3.org/2000/svg">
  <defs
     id="defs2">
    <filter
       style="color-interpolation-filters:sRGB"
       id="filter11274"
       x="0"
       y="0"
       width="1"
       height="1">
      <feColorMatrix
         values="1.80838 -0.598802 -0.598802 0 0.240964 -0.598802 1.80838 -0.598802 0 0.240964 -0.598802 -0.598802 1.80838 0 0.240964 0 0 0 1 0 "
         id="feColorMatrix11272" />
    </filter>
  </defs>
  <g
     id="layer1" />
  <g
     id="layer3"
     style="display:inline">
    <g
       id="g22779"
       transform="matrix(0.10448829,0,0,0.10448829,102.42931,10.528764)">
      <path
         style="display:inline;opacity:1;fill:#ffffff;fill-opacity:1;stroke:none;stroke-width:6.02501;stroke-linecap:round;stroke-linejoin:round;paint-order:markers fill stroke;stop-color:#000000"
         d="m -841.84423,85.91933 -1.2392,163.16412 45.43811,53.28651 66.50485,17.76216 85.91933,-26.43671 40.48123,-109.05146 -37.17663,-109.464536 z"
         id="path20176" />
      <path
         style="fill:#00cd00;fill-opacity:1;stroke-width:0.264583"
         d="m -848.24175,104.17762 c 0.71406,31.99749 -24.14311,14.76812 -31.82228,17.55981 -7.95093,2.8905 12.25123,17.79428 11.40425,27.76305 -0.26779,3.15182 -3.09018,5.54895 -5.03489,8.0437 -11.72873,15.04612 -15.2234,29.4377 -16.14874,45.50681 -1.04212,18.09719 -11.15131,45.15773 -1.24584,57.421 2.69498,3.33646 6.23577,11.02396 9.85503,16.20901 4.25292,6.09284 9.5588,11.39725 13.88626,17.43738 5.07418,7.08238 8.60596,15.2503 14.12337,21.99312 7.88643,9.63801 17.51545,17.73172 26.81888,26.0102 6.15735,5.47901 12.48608,10.79327 19.16035,15.62924 7.37501,5.34373 14.60926,11.21158 23.00562,14.73966 8.56317,3.59818 18.01388,4.60754 27.1581,6.23796 12.1537,2.16701 25.52415,9.85992 36.73733,4.69531 17.43224,-8.02902 38.90803,-12.0337 56.87486,-21.38327 7.95598,-4.14013 15.11914,-9.69648 22.20642,-15.19271 6.05455,-4.69534 12.30453,-9.32702 17.2922,-15.14311 9.36944,-10.92565 13.71931,-25.57824 23.16158,-36.441 5.40876,-6.22245 8.29044,-4.09719 18.82367,-16.04469 4.08824,-4.63716 8.7625,-27.44671 12.18799,-26.7461 14.89493,3.04638 -13.01627,-33.85329 -1.73479,-54.81014 6.66482,-12.38079 -8.00394,-23.99131 -12.45808,-35.82326 -2.73032,-7.25278 -3.83736,-15.54187 -8.74003,-21.54363 -2.45306,-3.00298 10.58317,-15.36762 6.0207,-13.76513 -8.22983,2.89057 -32.6323,-12.81304 -36.41732,-12.71763 -16.59326,0.41824 19.93217,37.56044 18.64557,57.747 -0.96516,15.14315 -12.17897,27.83346 -19.37363,41.19323 -8.84823,16.43031 -21.87113,29.16974 -29.18457,47.77527 -2.72519,6.93292 -7.73807,13.24421 -11.73126,19.65012 -5.77428,9.26314 -9.29705,18.94976 -20.22755,23.30464 -31.88616,12.70394 -71.14735,12.05901 -102.32277,-6.80327 -8.30684,-5.02595 -10.55973,-18.30138 -15.13095,-27.7418 -7.34951,-15.17812 -15.78153,-28.29934 -28.14422,-40.2558 -15.74396,-15.22662 -23.5853,-36.18284 -24.35236,-56.7548 -0.71904,-19.28395 22.81292,-35.87765 18.80235,-54.75364 -1.22994,-5.78878 -12.17712,-16.66523 -12.09525,-12.99653 z"
         id="path13273" />
      <path
         style="fill:#00cd00;fill-opacity:1;stroke-width:0.264583"
         d="m -664.76448,-90.392654 c -22.39229,-1.424982 -81.60821,35.445359 -78.71521,50.604385 -6.41421,16.658462 6.32333,40.9280198 -22.21544,35.4924022 -18.13386,0.703248 -38.65581,9.1921737 -51.06998,22.7386688 15.17835,3.769118 37.524,-9.9745141 53.51351,5.521626 14.82714,7.872569 33.02664,27.394837 48.34382,9.120892 16.65081,-13.329947 50.39897,-20.3864 65.20584,-7.496701 11.15807,-25.84467124 -33.31403,-24.2939326 -49.82228,-29.6209309 0.58198,-10.3649151 57.6126,-33.3739921 76.90228,-22.0270791 30.59589,16.7539077 -0.71509,-22.03164 -8.47854,-29.81265 -5.59261,-10.203979 -17.79355,-34.644316 -33.664,-34.520613 z"
         id="path12967" />
      <path
         id="path12125"
         style="display:inline;fill:#ffff00;stroke-width:0.999999"
         d="m -2225.7363,-78.609375 c -30.0598,0.920678 -73.1859,42.609039 -76.5059,47.820313 -14.7703,20.355007 -17.7873,47.31094 -12.4551,71.433593 5.3754,24.490039 19.4861,47.99296 41.4414,60.917969 8.4635,5.10404 18.0857,7.9565 27.8164,9.32031 26.9308,6.9294 56.1443,-0.8199 78.252,-17.058591 21.9934,-15.909978 38.1952,-40.997552 40.0059,-68.455078 -0.101,-2.936794 0.4988,-43.866027 -14.7001,-58.451172 -12.5523,-19.950541 -52.064,-46.501035 -83.8546,-45.527344 z m -320.4512,150.730469 c -2.4753,-0.0073 -4.9507,0.058 -7.4219,0.183594 -18.6096,1.020085 -36.8626,6.269397 -53.4707,14.642578 -26.8872,9.515266 -110.7491,73.512794 -134.6387,76.714844 -20.7609,3.1331 -42.0202,-0.20126 -61.3593,-7.91406 -27.3555,-10.75092 -106.0257,-66.265116 -123.7442,-72.634769 -39.3635,-14.951852 -85.6626,-12.769161 -122.2265,8.753907 -12.0572,6.9717 -80.6584,65.766862 -99.0782,91.115232 -10.7227,14.62812 -17.648,32.61547 -16.5566,50.94727 0.1198,2.8977 2.5494,5.13992 3.8867,7.61914 7.6546,11.63454 19.822,21.43774 34.1758,22.33008 15.7352,1.18252 260.3888,192.0351 272.5195,203.10742 9.7364,8.45805 20.5046,7.91172 33.5684,9.8457 7.8479,1.24573 14.2305,19.07494 9.2461,41.96289 15.6297,1.87302 49.1891,-1.79739 64.9023,-4.08008 28.7355,3.44637 23.5296,-5.98784 25.3848,-13.07226 2.101,-8.49472 -10.7081,-15.43682 -13.5117,-23.35742 -4.1978,-11.66174 21.856,-12.79687 30.9316,-13.59571 12.054,-1.04043 21.9483,-9.21444 30.166,-17.44531 12.8273,-13.46328 342.2888,-183.05462 339.2696,-191.14453 -13.2181,-32.0103 -79.4455,-108.2374 -106.0782,-129.72852 -9.931,-8.09232 -73.1991,-52.533805 -98.5449,-53.990231 -2.4688,-0.171722 -4.9446,-0.252513 -7.4199,-0.259765 z m 262.6445,246.224606 -23.7851,6.98828 c 0,0 -24.358,27.72291 -41.7969,31.23047 -13.4976,2.67924 -27.0564,4.85605 -40.7832,6.16797 -9.4216,2.67342 -19.4924,7.84208 -23.0469,17.60742 -3.7993,10.6455 -0.1422,22.02457 3.1055,32.31055 5.1109,15.78115 -3.4758,73.99708 -6.7123,79.26109 -25.1481,63.59422 -95.8922,97.67331 -188.5709,66.48696 -7.8499,-3.22367 -85.1796,-28.11967 -93.5879,-29.28516 -5.7565,8.433 64.9547,62.98123 68.1055,72.81836 4.5114,14.57908 -282.983,12.96448 -264.3653,-11.58594 5.5787,-7.2856 22.7471,-18.35304 26.6426,-26.65625 -1.8699,-6.12385 31.1172,-23.94277 24.7344,-24.42968 -11.1041,-1.07127 -72.9141,19.87039 -82.8281,24.31835 -19.336,9.42433 -37.2677,21.70479 -53.3946,35.91211 -5.7314,5.53191 -11.7128,11.5364 -18.416,15.43555 -12.0814,7.48554 -39.7539,1.23456 -32.1113,-0.80469 3.4231,-0.70881 5.0479,-4.89425 2.9082,-7.68554 -4.4105,-6.25214 -11.2478,-10.19646 -17.3438,-14.60547 -9.3009,-6.67121 -19.5306,-12.26418 -27.6797,-20.39844 -0.9057,-0.96673 -2.6295,-3.14971 -0.2207,-3.44726 5.2229,-1.32639 10.6661,-0.49025 15.9825,-0.48829 -19.5794,-17.71581 -36.7757,-38.21118 -50.166,-60.99414 -8.3133,-14.35476 -15.2349,-30.52828 -16.7227,-47.12109 -0.8743,-10.14357 0.4869,-20.34307 4.9668,-29.66992 3.6625,-6.82333 7.7887,-13.48231 10.0918,-20.94336 3.3367,-9.44051 8.7836,-52.97554 2.1933,-61.17383 -7.7478,-9.64621 -115.856,-22.07762 -129.2187,-19.08398 -6.5451,3.31176 19.888,51.37754 25.4824,60.66211 9.6585,15.69474 21.536,30.17113 28.8711,47.19726 2.9732,6.6356 3.3972,13.9769 4.3613,21.08398 1.5543,15.34046 -0.9424,31.45705 -6.2128,46.12891 -10.6323,29.60531 -29.9416,54.83514 -46.1661,81.45703 -10.6487,17.53123 -20.6833,35.92048 -25.332,56.05274 -5.8139,33.91343 -0.512,69.1861 12.8789,100.72656 17.0653,40.42995 45.2358,75.16284 76.8672,105.1543 14.4934,13.75729 29.9373,26.46758 45.8672,38.52148 1.8032,-12.03231 -0.018,-24.40526 -4.6035,-35.62891 -3.9775,-10.37276 -52.2209,-78.1043 -64.6582,-106.09961 -8.4046,-18.82974 -13.1554,-39.60575 -9.9805,-60.22851 0.6003,-3.17201 0.5463,-6.7681 3.2539,-8.97852 17.8334,-20.21631 44.5281,-31.25713 71.127,-33.01367 17.8273,-1.09897 36.329,2.21121 51.6933,11.62696 -5.4185,27.0354 -18.8244,46.14089 -8.0879,71.94335 6.0611,14.65894 29.3598,37.44834 41.8438,47.19336 27.1429,24.55079 57.1509,46.91643 91.5215,60.21485 25.0806,9.76014 50.2741,21.21943 76.8886,26.19922 21.8094,4.08073 56.753,1.7582 66.5059,2.76367 6.3655,0.65484 12.7852,0.24294 19.1074,-0.42774 34.5241,1.20223 70.0563,7.53121 104.9902,4.88086 17.1647,-1.30223 34.2369,-4.91078 50.6329,-10.15429 29.8118,-9.534 55.8844,-22.26439 85.6933,-38.38672 17.9888,-9.60673 34.6937,-21.40785 50.7539,-33.92383 23.6899,-16.80737 38.9372,-43.57236 45.1367,-71.625 4.4513,-20.17433 4.9118,-41.37588 0.2891,-61.56445 23.5698,-8.56483 49.6335,-10.44109 74.1563,-5.13282 19.9181,4.34918 39.1805,14.66286 50.3515,32.19336 1.1061,4.79048 0.9137,9.99967 0.9649,15.10547 -0.3519,25.14951 -69.0033,133.19622 -84.002,169.23242 -3.4323,8.10864 -5.8802,16.57982 -8.039,25.10352 41.9277,-27.44202 81.2273,-60.21249 110.4316,-101.28711 15.8708,-22.2085 28.2442,-46.92727 36.0879,-73.08984 7.1222,-21.76211 6.5561,-45.54647 0.1445,-67.40235 -9.3922,-32.4647 -28.338,-60.87282 -45.2851,-89.73828 -7.7289,-12.85636 -14.9165,-26.05225 -21.2383,-39.65039 -5.0486,-8.16355 -9.1114,-17.80101 -11.0606,-27.01172 -2.8773,-12.83936 -2.1533,-27.31014 1.086,-40.29883 6.0092,-24.3679 18.9278,-46.58202 31.1172,-68.4707 6.7886,-12.00139 22.7759,-48.97066 28.58,-61.49219 z"
         transform="scale(0.26458333)" />
      <path
         id="path12121"
         style="display:inline;fill:#ff0000;stroke-width:0.264583"
         d="m -760.00391,267.75391 c -0.95948,-0.0269 -1.98512,0.74343 -1.78515,1.7829 0.32919,1.81647 1.72547,3.19031 2.91015,4.51592 3.93837,3.95748 8.57623,7.21931 13.58985,9.66797 3.03529,1.42667 6.34337,2.58917 9.74486,2.34256 8.21955,0.44817 16.57171,-1.16443 23.99205,-4.74269 5.79468,-2.80962 11.04199,-7.1059 14.13145,-12.83514 0.55895,-0.66045 -0.72462,-0.17377 -1.09535,-0.25534 -6.87943,0.51756 -13.31058,3.2362 -19.7731,5.43177 -5.95207,2.03178 -12.23079,3.94669 -18.59202,3.16113 -4.09551,-0.47759 -7.9957,-2.28026 -11.14952,-4.81775 -1.06599,-0.97685 -2.51671,-1.34001 -3.79538,-1.9629 -2.52734,-1.01175 -5.10473,-2.15056 -7.85789,-2.29587 -0.10665,0.002 -0.2133,0.005 -0.31995,0.007 z" />
      <path
         id="path12117"
         style="display:inline;fill:#030604;stroke-width:0.264583"
         d="m -637.22656,-97.111328 c -17.46247,1.606308 -35.02037,3.825146 -51.75989,9.257246 -6.9779,2.270812 -13.80332,5.074809 -20.23621,8.613848 -2.0074,1.670694 -3.93717,3.592477 -6.42578,4.523437 -0.34333,-0.08493 0.0358,-0.795082 -0.026,-1.076546 0.491,-2.587509 1.71032,-4.965087 2.81294,-7.335015 1.50647,-3.089626 3.27737,-6.009303 4.97283,-8.990783 0.28516,-0.635461 -0.54077,-1.107807 -1.03906,-0.689453 -11.45331,6.863861 -21.32523,16.242407 -29.16905,27.021085 -8.71907,12.051562 -14.88382,26.187099 -16.46572,41.053134 -0.43389,4.141401 -0.51252,8.323773 -0.18555,12.476563 -1.75096,2.7564711 -5.05986,3.8812213 -8.09528,4.5417003 -7.71264,1.5651534 -15.65668,1.2257984 -23.39849,2.5892739 -4.57116,0.7577095 -9.17619,2.1670678 -12.86642,5.06850957 -1.58183,0.67089008 -3.21056,1.27526483 -4.76298,2.03323003 -5.92818,2.840842 -11.57147,6.2661342 -16.92904,10.0705342 -2.93403,2.14986 -5.84999,4.432781 -8.09232,7.323705 -0.96729,1.299111 -1.81585,3.181885 -0.88213,4.716811 1.14256,1.692748 3.38757,1.880515 5.24814,2.007564 2.24259,0.111252 4.49398,-0.171852 6.71212,-0.374766 -2.41312,2.838025 -5.58927,4.871175 -8.42358,7.251334 -4.75548,3.821545 -9.66165,7.674724 -13.1261,12.769121 -1.22808,1.827884 -1.99931,3.938836 -2.25911,6.122955 -0.69444,3.186799 -1.44903,6.512113 -3.41778,9.182762 -0.79566,1.044758 -2.20388,1.77425 -3.49553,1.196326 -2.14315,-0.751603 -3.60619,-2.5223 -5.05162,-4.194768 -3.86046,-4.792473 -6.67562,-10.19417 -9.50176,-15.647858 -2.11149,-4.161826 -4.13844,-8.366153 -6.20109,-12.552919 -1.05891,8.752203 -1.12544,17.63262 -0.0364,26.384604 2.28615,19.020896 8.98872,37.225576 17.37653,54.352973 0.0634,0.73807 -0.22891,1.55035 -0.37562,2.22098 -0.75508,2.97545 -2.66348,5.85492 -5.64244,6.94886 -3.79278,1.43606 -8.02933,0.42795 -11.55451,-1.28623 -5.10872,-2.49756 -9.43657,-6.74761 -11.73113,-11.97798 -1.29997,-2.98245 -1.73723,-6.31357 -1.28793,-9.531924 0.0112,-0.582488 0.40106,-1.617976 -0.41363,-1.789642 -0.64281,-0.01832 -0.88034,0.833823 -1.26725,1.259244 -2.04893,2.895569 -2.72196,6.471222 -3.18214,9.917482 -0.73303,6.62767 -0.13402,13.40169 1.6848,19.81413 1.6825,5.63121 4.5271,11.17935 9.23869,14.85796 1.87351,1.44067 4.00543,2.63591 6.31209,3.18892 1.0712,0.12179 1.94549,-1.18318 1.28946,-2.09295 -0.43074,-0.91079 -1.11481,-1.66523 -1.75821,-2.42854 1.7712,-0.1917 3.73766,-0.38264 5.12695,-1.61132 0.9389,-1.04387 0.47631,-2.67376 -0.50142,-3.52075 -2.09667,-2.24834 -4.7928,-3.80142 -7.10241,-5.80927 -1.82495,-1.50384 -3.67445,-3.15398 -4.64617,-5.35944 4.54762,3.24838 9.33596,6.59119 14.94566,7.61283 3.25384,0.57299 6.86833,-0.18827 9.23867,-2.59752 1.21391,-1.14712 2.14052,-2.56761 2.87036,-4.06218 3.16752,-0.93785 6.56551,-2.23733 8.4621,-5.11378 1.47389,-2.37533 1.03196,-5.41236 -0.10618,-7.82776 -1.86341,-4.3157 -4.84066,-8.01171 -7.08804,-12.118125 -1.5269,-2.637316 -3.37955,-5.162237 -4.27406,-8.106707 0.0517,-0.433062 0.88601,0.0237 1.22926,0.09615 3.88796,1.452618 7.51784,3.519472 11.41882,4.945429 3.03045,1.14872 6.30627,2.084027 9.57229,1.642826 2.10181,-0.359347 3.91613,-1.613766 6.01993,-1.985313 4.49483,-1.064975 9.20662,-0.166667 13.41121,1.571745 6.47286,2.660975 12.18402,6.783965 18.23815,10.229635 2.28643,1.3163 4.63076,2.54071 7.0716,3.54676 -3.61829,1.00974 -7.0364,3.46828 -8.35543,7.09363 -1.64674,4.37979 -0.56188,9.32098 1.64863,13.29993 2.67997,4.88938 7.29945,8.97868 12.86732,10.07934 3.97663,0.76246 8.179,-0.38419 11.38593,-2.81189 0.59113,-0.47208 1.36952,-0.90545 1.63826,-1.62604 0.56294,-2.58149 1.074,-5.41935 3.02036,-7.35919 1.47846,-1.23507 3.52926,-0.69613 5.15808,-0.10354 3.68403,1.39388 7.23368,3.35742 11.1453,4.22731 2.26101,0.51888 4.6419,0.7196 6.93295,0.29224 0.72634,-0.19238 1.05653,-0.99863 1.56751,-1.50472 4.35902,-5.29759 7.12945,-12.0389 7.06053,-18.95268 -0.009,-7.78073 -3.21383,-15.240315 -7.70693,-21.473423 -2.67178,-3.607728 -5.70936,-6.925496 -8.71164,-10.257888 -0.89578,-0.919151 -1.7939,-1.955428 -2.99267,-2.465578 -1.08166,-0.244829 -1.8566,1.136493 -1.2759,2.011307 0.54217,1.391357 1.26242,2.705355 2.03762,3.978927 -6.73696,-8.229416 -13.94987,-16.309724 -22.92433,-22.157764 -5.2375,-3.387902 -11.04952,-6.018186 -17.19517,-7.188651 -0.55872,-0.02588 -1.50283,-0.465416 -1.73835,0.294846 -0.1067,0.621357 0.71725,0.925056 1.06683,1.344538 2.13748,1.712808 4.45666,3.182137 6.60692,4.880219 13.2074,9.891965 25.60408,21.07124 35.64265,34.225087 1.46638,1.925353 2.86438,3.90134 4.22504,5.9025 1.86819,1.1857 3.49423,2.66859 4.7039,4.57496 1.60342,2.50458 2.03434,5.57581 1.18673,8.41137 -0.44843,1.55765 -1.39811,3.30211 -2.65909,4.52492 -1.75348,1.77484 -4.41769,2.97179 -6.90481,2.15455 -2.74428,-0.81115 -4.49179,-3.36743 -5.65095,-5.83181 -0.77796,-1.75562 -1.41175,-3.56946 -2.31174,-5.27101 -6.81478,-14.062034 -15.501,-27.424601 -26.97217,-38.139784 -8.21923,-7.663426 -18.00847,-13.769171 -28.77251,-17.115978 -0.68116,-0.464285 -1.66072,3.49e-4 -1.67112,0.84249 -0.9643,3.20828 -2.12572,6.418913 -4.4169,8.948834 -1.49202,1.638713 -3.74164,2.510929 -5.95001,2.271488 -3.61944,-0.255648 -6.9249,-1.948459 -10.11694,-3.540608 -1.07305,-0.552449 -2.1279,-1.139181 -3.17923,-1.731759 2.31139,-6.717194 6.00653,-12.828537 10.55078,-18.263672 3.76438,-4.465263 8.18864,-8.604271 12.87305,-12.214844 4.63781,-3.551942 9.55209,-6.755845 14.70353,-9.510812 4.28216,-2.128905 9.13445,-3.178821 13.91365,-2.768485 1.77617,0.150336 3.78296,0.517511 5.5254,0.998588 7.4109,2.057848 13.95731,6.264638 20.37208,10.342762 6.86377,4.409531 13.71914,9.012898 21.43152,11.829913 5.55982,2.258588 11.91495,1.90775 17.46845,-0.185326 7.47516,-2.68203 13.92225,-7.451008 20.42169,-11.891279 5.89904,-4.091426 11.85192,-8.32515 18.65894,-10.776124 1.94396,-0.621192 4.02372,-0.552587 6.04215,-0.570195 2.75542,0.07715 5.46424,0.514372 8.03903,1.223099 7.55048,2.111495 14.20209,6.591023 20.0468,11.707081 6.10592,5.358388 11.42254,11.530321 16.5623,17.799997 2.49512,1.882834 4.97303,4.400043 5.26251,7.676062 0.24136,3.203816 -2.00864,6.00055 -4.57716,7.637514 -3.3518,2.191503 -7.7178,3.25467 -11.58574,1.88369 -2.41442,-0.937504 -4.09223,-3.286364 -4.47497,-5.796069 -0.16517,-0.862739 -0.21351,-1.741782 -0.28089,-2.616041 -5.15234,-1.807248 -10.91739,-1.135312 -15.81858,1.120849 -6.64373,2.929754 -12.18654,7.827357 -17.12465,13.059747 -7.18435,7.703029 -13.19521,16.44638 -18.30925,25.635435 -0.43175,0.932217 -0.27679,1.980267 -0.57184,2.902877 -0.99559,4.54318 -3.30558,8.64968 -6.12232,12.3365 -2.47216,3.15087 -5.44298,6.17997 -9.2882,7.56378 -1.7217,0.57339 -3.8858,0.27714 -4.98057,-1.30416 -1.90408,-2.42239 -2.21944,-5.63059 -2.51324,-8.59107 -0.15654,-0.66455 0.11505,-1.24103 0.50127,-1.76525 12.04703,-20.23454 28.72756,-37.625983 48.30851,-50.701815 -0.81497,-1.135726 -2.32841,-2.054372 -3.82197,-1.71228 -3.23097,0.471894 -6.03768,2.302109 -8.77066,3.968582 -7.1383,4.607685 -13.5549,10.262667 -19.45742,16.35527 -0.44422,0.538937 -0.92272,1.025549 -1.64036,1.147129 -2.05884,0.673607 -4.1152,1.515327 -5.72732,3.007344 -4.42691,3.685715 -7.95904,8.34106 -10.90368,13.263654 -2.76573,4.723056 -4.968,9.977666 -5.17768,15.512236 -0.009,1.45672 0.1885,2.90611 -0.0185,4.35647 -0.34794,5.12294 0.75382,10.62552 4.24792,14.55117 3.11804,3.53764 8.0709,5.19997 12.70927,4.54802 4.7287,-0.57918 9.04581,-3.06305 12.47342,-6.29355 0.90745,4.46718 3.54791,8.76032 7.68652,10.87958 4.94341,2.60585 10.97358,2.31471 16.0897,0.36366 4.66805,-1.76196 9.01078,-5.07001 11.00212,-9.7558 1.43262,-3.42325 1.05397,-7.45062 -0.78029,-10.64955 -1.12602,-2.05264 -2.68315,-3.83544 -4.39258,-5.42188 -2.918,-0.5473 -5.93418,-0.85064 -8.61133,-2.25195 -0.47618,-0.21566 -0.19622,-0.52012 0.096,-0.71705 1.73702,-1.48811 3.94709,-2.24469 5.97054,-3.25146 2.81848,-1.31034 5.74615,-2.4696 8.36732,-4.14333 3.46924,-3.607774 8.15917,-6.227147 13.09932,-6.874486 5.51703,-0.791859 11.17244,0.173165 16.76425,0.446566 4.86431,0.271156 9.83646,-0.0097 14.46538,-1.638465 2.11619,-0.57406 3.67151,-2.201039 5.51091,-3.297631 1.47423,-0.911039 3.00833,-1.855385 4.72051,-2.217168 0.51566,-0.158416 0.7628,0.288189 0.64978,0.740262 -0.10703,2.212707 -1.16725,4.231782 -2.02787,6.22996 -2.57176,5.537722 -5.86261,10.697982 -9.06734,15.879052 -0.80507,1.97905 0.36003,4.0586 1.62696,5.54297 3.40055,3.83503 7.9367,6.44062 12.53838,8.57172 3.9715,1.78076 8.25021,3.2144 12.65119,3.1182 0.77071,-0.0435 1.54116,-0.17573 2.26941,-0.43602 -2.38343,1.76523 -4.90117,3.46813 -6.75286,5.81947 -0.76557,0.94317 -0.89596,2.58185 0.28411,3.25866 0.36294,0.18407 -0.61707,0.28428 -0.72461,0.47656 -0.66244,0.29256 -1.39231,0.99422 -0.97461,1.76953 0.52889,1.00187 1.7944,0.70944 2.72093,0.73016 1.35373,-0.0367 2.72701,-0.18263 4.06618,0.0921 -0.55812,0.76886 -1.28561,1.45208 -1.43177,2.43953 -0.28257,0.67088 0.85652,-0.19053 1.22527,-0.22254 3.99379,-1.55814 7.80107,-3.70701 10.89588,-6.70439 6.33848,-5.98191 10.07015,-14.27721 11.71738,-22.73936 1.47804,-7.56447 1.33837,-15.453487 -0.39895,-22.954879 -0.20749,-0.571456 -1.03136,-0.364633 -1.1156,0.2009 -2.20324,6.600617 -5.60752,12.871579 -9.85472,18.415999 -3.07632,3.94121 -6.80795,7.67273 -11.58939,9.42606 -3.2347,1.13925 -6.93718,0.78053 -9.87974,-0.99023 -2.02592,-1.15007 -3.7739,-2.72911 -5.32031,-4.45898 1.23957,-9.71119 4.8097,-18.89261 7.76429,-28.165703 3.20773,-9.833233 6.15509,-19.958319 6.22224,-30.385851 -0.0146,-3.609712 -0.43299,-7.200638 -0.69274,-10.797523 -0.24311,-2.083999 -0.45703,-4.23259 -1.29184,-6.176313 -0.44033,-1.028988 -1.80829,-1.744278 -2.7832,-0.970703 -1.54488,1.095795 -2.17431,2.989175 -3.01525,4.604676 -2.64654,5.67569 -4.78372,11.684199 -8.11445,16.927831 -1.10476,1.742539 -2.33538,3.467011 -3.99921,4.719446 -2.76752,-1.328882 -4.44651,-4.059472 -6.05209,-6.549714 -4.56193,-7.451466 -7.88303,-15.768139 -13.86261,-22.271435 -2.08688,-2.268717 -4.62233,-4.098226 -7.39562,-5.433185 -2.04811,-1.207818 -4.18681,-2.352705 -5.87327,-4.060119 2.46635,-0.525474 5.0039,-0.144093 7.49736,-0.08275 2.96487,0.171316 5.93002,0.338204 8.89717,0.465566 -4.78897,-6.150783 -10.5022,-11.563316 -16.85343,-16.0778719 -11.82189,-8.3983804 -25.42305,-13.9760492 -39.32846,-17.8725794 -0.75738,-0.1176749 -1.17532,-0.3113969 -0.33764,-0.7539319 7.89136,-6.1571058 16.76986,-11.1575028 26.36532,-14.0193668 9.03426,-2.700217 18.83313,-3.265188 27.80773,-0.285437 2.37917,0.774887 4.67021,1.812019 6.90703,2.997468 3.20981,0.693997 6.52153,1.449834 9.03164,3.662507 1.53354,1.43908 2.00732,3.682101 1.65922,5.701916 -0.48607,3.9147175 -2.06766,7.5731225 -2.97831,11.39152167 -0.9335,3.19714943 -0.73918,6.60300983 -0.14348,9.84198533 1.34849,6.974673 5.53003,13.22355 11.12753,17.530459 7.39829,5.792739 17.40224,8.482217 26.63164,6.289102 3.88959,-0.912488 7.50687,-2.779381 10.67143,-5.194986 6.26867,-3.945353 10.53039,-10.741238 11.70636,-18.021538 1.83038,-10.49993331 -1.73062,-21.925181 -9.59666,-29.200967 -4.39623,-3.98964 -10.19489,-6.501295 -16.15234,-6.650391 -1.1043,0.15902 -2.0855,0.76997 -3.18435,0.987293 -4.09877,1.1833 -8.73877,1.198588 -12.52798,-0.957729 -4.54446,-2.501221 -7.60608,-6.884074 -10.33203,-11.161293 -4.6523,-7.381129 -8.42683,-15.564587 -14.7076,-21.807724 -1.65479,-1.642636 -3.59767,-2.94003 -5.43212,-4.361428 -2.99299,-2.551808 -5.62722,-5.599451 -7.44956,-9.097459 -0.39009,-0.623259 -0.23374,-0.918526 0.40635,-0.463631 1.89742,1.066886 3.57796,2.395464 5.29056,3.801768 0.6052,0.494057 1.19802,1.003185 1.79806,1.503563 1.07274,-0.589036 2.23049,-1.786944 1.72259,-3.109217 -0.8795,-1.915299 -2.98028,-2.751056 -4.7032,-3.73097 -3.86866,-2.061653 -8.02517,-3.568756 -11.48021,-6.314929 -0.86226,-0.706394 -1.97486,-1.855125 -1.34583,-3.044103 0.98406,-1.70141 3.00505,-2.300963 4.55665,-3.337891 0.21044,-0.372542 1.22804,-1.088977 0.25913,-0.956224 -2.50368,-0.251011 -5.12414,-0.08042 -7.49546,-1.045729 -0.2467,-0.24934 0.40533,-0.57406 0.54601,-0.816875 1.86392,-1.664955 4.1465,-2.759088 6.2432,-4.093045 2.29413,-1.366119 4.44239,-2.95546 6.52133,-4.627189 -0.60351,0.05794 -1.20703,0.115885 -1.81054,0.173828 z m -27.45117,13.929687 c 2.36357,0.07859 4.76531,0.214906 7.08984,0.533203 -4.3889,0.972276 -8.89814,1.388655 -13.2434,2.385627 -0.76442,0.206034 -1.87498,0.632887 -1.67652,1.622186 0.15989,0.872232 1.0982,1.13988 1.86277,1.171565 2.69832,0.371111 5.33314,0.124481 7.96769,0.634378 0.97543,0.109314 -0.65771,0.104793 -0.97545,0.157675 -4.15474,0.256538 -8.38091,0.305662 -12.53665,0.796148 -0.76562,0.147404 -1.92032,0.349759 -1.91016,1.349609 -0.0172,0.894766 0.89416,1.366303 1.67743,1.422175 2.63372,0.589163 5.3339,0.845272 8.01743,1.073011 7.80606,0.0516 15.62587,2.698585 22.3656,6.560975 7.13238,4.075773 13.51812,9.630071 18.39761,16.386236 5.16212,6.386373 10.40078,12.785366 14.46306,19.949705 0.91093,1.694935 1.91039,3.489116 1.96168,5.455554 -0.18538,0.87979 -1.25178,0.576444 -1.89523,0.53405 -0.7896,-0.08442 -1.51473,-0.400756 -2.0631,-0.981972 -8.02995,-6.545588 -18.35207,-9.972239 -28.65724,-10.233227 -12.78543,-0.405292 -25.49379,3.327531 -36.53991,9.64894 -2.33855,1.368804 -4.66937,2.803865 -6.77097,4.510123 -0.41564,0.427114 -1.32335,0.94443 -0.80448,1.622823 0.68053,0.308134 1.49902,-0.05885 2.22312,-0.137846 0.85177,-0.195338 1.68405,-0.460815 2.51953,-0.714844 -5.70919,3.154901 -11.6307,6.073513 -16.69134,10.2432394 -1.05474,0.901217 -2.00364,1.9517722 -2.6446,3.1903545 0.72024,2.3852045 3.03269,3.733765 5.20991,4.5932487 5.82223,2.2133278 12.03971,3.0540603 18.05938,4.486517 5.85405,1.3399795 11.81096,2.7903562 17.05493,5.8206249 1.66661,0.9856984 3.18366,2.2178725 4.51172,3.6191405 2.57899,1.487709 5.41262,2.910829 7.12396,5.443757 0.32845,0.475873 0.26267,1.248306 -0.3974,1.372649 -1.84373,0.739199 -3.87108,0.325782 -5.71978,-0.04507 -2.8228,-0.647297 -5.41823,-2.00769 -7.86021,-3.519267 -6.4492,-2.554513 -13.76406,-2.706035 -20.3528,-0.575288 -8.25326,2.53218 -15.40611,7.550475 -22.47982,12.336637 -6.60863,4.528156 -13.18713,9.169816 -20.67137,12.021734 -1.33431,0.39212 -2.62845,0.06812 -3.96289,-0.158203 -4.8388,-1.138334 -8.94641,-3.986449 -13.12217,-6.580755 -3.5673,-2.275021 -7.22703,-4.512869 -11.2626,-5.860651 -1.59851,-1.655514 -3.27025,-3.292525 -5.12591,-4.681979 -5.02453,-3.894726 -11.11325,-6.3648 -17.42274,-7.116852 -8.7923,-1.139408 -17.63211,0.409217 -26.25193,2.070409 -3.6424,0.707209 -7.27744,1.45541 -10.93184,2.097563 6.76561,-6.243235 14.95678,-10.794986 23.56641,-13.9550785 7.42265,-2.7064683 15.38981,-4.49140152 23.2535,-5.55460966 7.48743,-1.02162904 15.02369,-1.41108764 22.59415,-1.45710904 2.37992,-2.3027908 2.94537,-5.7571101 3.07327,-8.9219468 0.076,-1.711851 0.0353,-3.427019 -0.0362,-5.1386 0.5936,-0.202927 0.52116,-1.038011 0.75573,-1.5367 0.4427,-1.934645 0.56305,-3.926328 0.98186,-5.867669 1.33278,-7.703064 3.18717,-15.343272 6.52804,-22.435475 0.87728,-1.834225 2.06873,-3.664795 3.08398,-5.507812 0.0968,-0.175743 0.49967,-2.211805 0.9668,-2.88086 0.58256,-0.834383 4.75569,-4.905185 6.02798,-5.82574 9.72333,-7.864968 20.79143,-14.068097 32.53023,-18.28703 9.04467,-3.193689 18.55375,-5.169712 28.13902,-5.135277 z m 75.58007,64.476563 c 5.68785,0.199779 11.26762,2.272996 15.97364,5.509683 2.12007,1.481963 4.07212,3.2589875 5.1689,5.6722337 1.10468,2.1486751 0.33515,4.866362 -1.44737,6.4026737 -1.95833,1.89635089 -4.47448,3.1307309 -7.02673,4.0037716 -5.23644,0.9371436 -10.58466,-1.1436337 -14.66341,-4.3604344 -2.17909,-1.725425 -4.18645,-3.7544396 -5.61065,-6.1482898 -0.7719,-2.6096228 -1.30102,-5.6636778 0.15836,-8.1362788 1.60956,-2.440041 4.73774,-2.970283 7.44726,-2.943359 z m -15.78125,7.914062 c 2.70707,4.98308 6.69675,9.1677068 11.09481,12.6977962 4.26846,3.3518813 9.29311,6.0824765 14.78019,6.5717354 3.98409,0.3039182 8.07699,-1.0129849 11.03516,-3.7226562 1.01976,-0.9004891 1.9356,-1.9142555 2.75391,-3 1.64873,2.5993719 1.29702,5.9142129 0.45609,8.7306686 -1.77264,5.761464 -5.57814,10.821152 -10.39441,14.403617 -3.08952,2.265565 -6.85972,3.804292 -10.74122,3.614271 -2.37402,0.203313 -4.78123,0.344004 -7.1373,-0.119513 -5.15478,-0.904652 -10.0171,-3.867845 -13.33477,-7.974844 -4.07409,-4.917436 -6.27574,-11.4257489 -5.73121,-17.8143559 0.27364,-3.51973755 1.58803,-7.2414083 3.73344,-10.2413575 0.93634,-1.3275165 2.01895,-2.5537106 3.23336,-3.6336426 0.084,0.162761 0.16797,0.325521 0.25195,0.488281 z m -3.23437,8.4238285 c -1.37605,-0.00879 -2.00125,1.53250889 -1.92565,2.7117079 0.17127,3.8938849 1.70748,7.5683898 3.34752,11.0500106 2.17709,4.392436 5.03909,8.672414 9.21485,11.384766 2.14659,1.344427 4.78376,1.974139 7.28252,1.473591 8.17983,1.263538 16.64379,-2.616346 21.73155,-9.000084 0.71222,-0.966659 1.61912,-2.014556 1.57577,-3.278195 -0.16268,-0.708682 -1.0319,-0.482871 -1.41098,-0.08505 -1.19504,0.687481 -1.95994,1.898021 -3.09488,2.672937 -4.9765,4.025016 -11.81091,5.589423 -18.04203,4.126633 -5.90856,-1.283628 -11.26058,-5.197472 -13.96575,-10.6474289 -1.41891,-2.72721 -2.14417,-5.7833969 -2.27933,-8.84248535 -0.22045,-0.84164345 -1.15236,-1.21691685 -1.89258,-1.49609375 -0.17672,-0.040546 -0.3592,-0.077054 -0.54101,-0.070312 z m -87.58789,43.5800785 c -2.72092,0.331755 -5.20099,1.607533 -7.71386,2.621288 -7.79201,3.367102 -15.33725,7.265219 -23.00099,10.908009 4.1017,0.531848 8.30829,0.858706 12.38648,-0.02336 5.80657,-1.088412 11.2168,-3.861936 15.72919,-7.639645 1.47409,-1.186922 3.12778,-2.315537 4.07574,-3.99325 0.37723,-0.961624 -0.46128,-1.993028 -1.47656,-1.873047 z m -69.41406,0.375 c -1.24655,0.04256 -1.82569,1.682775 -1.08164,2.607908 1.412,2.386902 3.71263,4.06457 5.88392,5.71355 3.44537,2.461538 7.30987,4.591361 11.55709,5.182448 2.37625,0.14893 4.68792,0.455877 7.08656,0.601664 1.18946,0.0069 2.46735,0.124353 3.58532,-0.337992 0.91374,-0.524314 0.82538,-1.977246 -0.1232,-2.421675 -2.11386,-1.448153 -4.62438,-2.135757 -6.9752,-3.092461 -3.30198,-1.229365 -6.6784,-2.286613 -9.91121,-3.68606 -2.91486,-1.703077 -5.80101,-3.623818 -9.09635,-4.500751 -0.30315,-0.07088 -0.6156,-0.0733 -0.92529,-0.06663 z m -0.72266,10.818359 c -1.23422,-0.08333 -1.93659,1.596514 -1.08358,2.458187 1.65621,2.124659 4.02354,3.519842 6.22739,5.001955 2.86981,1.820066 5.85958,3.530148 9.08861,4.617983 1.03834,0.155237 2.50259,0.180728 2.94531,-1.003906 0.32258,-1.367521 -0.94427,-2.366529 -1.83412,-3.189628 -2.10821,-1.818653 -4.47119,-3.327151 -6.60533,-5.105294 -2.76256,-1.088589 -5.50106,-2.443477 -8.48242,-2.785156 -0.0853,0.002 -0.17057,0.0039 -0.25586,0.0059 z m 66.86328,0.15625 c -4.07327,0.571752 -7.90664,2.462956 -11.06287,5.064656 -1.80169,1.538274 -3.18976,3.586399 -3.75744,5.902141 2.54781,0.679988 5.25724,-0.03719 7.42888,-1.439642 3.21353,-1.945327 6.74436,-3.509194 9.45784,-6.16778 0.81703,-0.737733 1.19873,-2.265633 0.15016,-2.9756 -0.63832,-0.453508 -1.47118,-0.425651 -2.21657,-0.383775 z m 58.49609,45.064453 c -2.63382,0.267167 -4.67123,2.172479 -6.63655,3.765287 -2.42737,2.12345 -4.81014,4.31882 -7.08323,6.60095 -0.32535,0.46448 -1.08123,1.04371 -0.66436,1.62915 0.59429,0.43472 1.31049,-0.10008 1.93952,-0.21525 1.87767,-0.70862 3.9882,-1.59255 5.97978,-0.76451 2.11098,0.81831 3.01925,3.11623 3.5918,5.13281 0.58513,2.37155 0.69507,4.59173 0.66081,7.03159 -0.0895,2.44213 -0.2493,5.00192 -1.00373,7.37552 -1.60478,4.23672 -4.09488,8.06039 -7.55649,11.00323 -3.25366,2.73247 -7.24647,4.46909 -11.32991,5.37507 -5.55552,1.22912 -11.30428,1.12522 -16.93108,0.47892 -9.78539,-1.17364 -19.26497,-4.00825 -28.61553,-7.10183 -7.5733,-2.76276 -15.7174,-3.73141 -23.74765,-3.35105 -12.39813,0.58414 -24.38992,4.10628 -36.25794,7.48186 -4.73962,1.33423 -9.46676,2.73908 -14.27201,3.81798 -7.09436,1.30035 -14.55868,0.19318 -20.94481,-3.30042 -7.09714,-3.81542 -12.65719,-10.80539 -13.91391,-18.86038 -0.80124,-4.73641 -0.0897,-9.76574 1.72084,-14.25713 1.57247,0.34847 3.42695,0.8129 4.86589,-0.15972 1.09387,-0.92937 0.60922,-2.62159 -0.21656,-3.56209 -2.08427,-2.75806 -4.98021,-4.81861 -8.03409,-6.381706 -1.14521,-0.521381 -2.67888,-1.039951 -3.79688,-0.201172 -1.08174,0.996228 -0.61217,2.625208 -0.072,3.780548 0.38035,0.4331 0.0342,0.81678 -0.19152,1.22655 -4.48163,8.08272 -4.89835,18.06087 -1.89503,26.71988 2.35716,6.9254 6.82588,13.1857 12.85585,17.37458 -1.1546,-0.0204 -2.70125,0.10861 -3.22852,1.31836 -0.47629,1.33007 0.58616,2.51767 1.51225,3.33482 2.15689,2.01099 4.87916,3.23155 7.4535,4.59537 1.45188,0.96925 2.90625,1.99022 4.10744,3.26393 0.36165,0.44373 -0.79259,0.14252 -1.11693,0.19462 -3.96878,-0.26927 -7.8444,-1.23359 -11.76216,-1.8685 -4.15434,-0.72581 -8.35567,-1.56205 -12.59226,-1.32509 -2.42122,0.36022 -4.83621,0.77896 -7.24695,1.21244 -1.02791,0.25664 -2.15533,0.42967 -3.02872,1.05531 -0.75283,0.73145 -0.14149,2.10991 0.88695,2.12791 2.72512,0.56908 5.53297,0.42904 8.30047,0.54749 2.92763,0.0539 5.85602,0.0635 8.78329,0.13905 4.34966,3.22666 9.88816,5.19819 15.33577,4.34634 5.99826,-0.84109 11.23192,-4.16582 16.18477,-7.44174 6.40078,-4.24378 12.61859,-9.01952 20.07321,-11.24445 1.87477,-0.4964 3.5562,-1.43664 5.40038,-2.04828 2.7308,-1.01621 5.51251,-1.89604 8.33204,-2.6314 -5.09362,2.95552 -8.82086,7.6352 -12.71857,11.93771 -3.41737,3.82527 -7.22212,7.60878 -12.03215,9.66959 -2.926,1.34051 -5.90724,2.61812 -8.61452,4.37121 -0.6899,0.52259 -1.73414,1.1932 -1.39843,2.21289 0.22657,0.84937 1.19064,1.09036 1.96144,0.94853 2.73146,-0.20911 5.32594,-1.19788 7.90644,-2.04907 3.75179,-1.33796 7.44784,-2.92156 10.7786,-5.12797 0.66955,4.77943 3.66164,9.01504 7.60938,11.69922 6.04961,4.34045 13.52262,6.02427 19.69169,10.15189 2.56865,1.76284 4.72295,4.47128 4.94946,7.67708 0.0924,1.81718 0.011,3.64385 -0.0712,5.45967 -0.50053,5.29447 -3.61604,10.07299 -7.77877,13.26926 -6.07273,4.74348 -13.71002,6.99266 -21.34392,7.36983 -2.63844,0.0978 -5.18556,-0.042 -7.72586,-0.48973 -3.52943,-0.573 -6.92887,-1.83916 -9.97726,-3.70753 -6.38068,-2.82137 -12.07108,-6.99218 -17.27288,-11.63209 -3.91287,-3.54286 -7.51929,-7.54213 -10.13533,-12.07495 -1.30098,-2.33195 -2.34085,-4.82364 -2.59505,-7.44773 -0.33324,-2.87647 0.62084,-5.8655 2.65169,-7.9468 1.03978,-1.13981 2.28964,-2.05941 3.57617,-2.90039 -3.66316,-4.0305 -8.97459,-6.30835 -14.3542,-6.75276 -7.07415,-0.66378 -14.50531,1.12731 -20.16615,5.50993 -3.49431,2.76477 -6.06795,6.93588 -6.16607,11.4728 -0.16207,3.89863 1.3145,7.66392 3.30315,10.94655 2.31205,6.94018 6.81456,12.81167 10.77176,18.86638 3.01021,4.51962 6.11442,9.15003 7.5373,14.45515 0.57269,2.34966 0.62854,5.05885 -0.34571,7.37891 0.0598,0.98926 0.93412,1.63477 1.35023,2.4776 11.23036,16.93659 22.7518,33.82637 31.32775,52.3118 0.47333,0.92186 0.77214,1.97042 1.64214,2.61 6.84739,6.67389 15.73323,10.85387 24.83441,13.48871 10.12824,2.9604 20.62305,4.31562 31.03911,5.83121 3.57751,0.31153 7.1609,-0.11481 10.73487,-0.27513 13.42685,-0.88761 26.97048,-2.8635 39.50771,-7.94713 5.38953,-2.19589 10.54574,-4.99401 15.22003,-8.46777 10.59376,-17.51565 19.24424,-36.25721 31.85089,-52.47792 0.60985,-0.85061 1.3773,-1.62625 1.92144,-2.49993 1.84386,-14.84316 8.55496,-28.85295 18.35412,-40.09707 2.83598,-3.24507 5.2832,-7.01715 6.08733,-11.31568 0.8823,-4.13838 -0.0465,-8.57296 -2.41209,-12.06743 -3.72341,-5.52909 -10.05633,-8.86717 -16.52434,-9.9697 -6.62933,-1.14663 -13.88646,0.24254 -19.12305,4.62109 -0.8179,0.67045 -1.57181,1.41247 -2.32422,2.1543 2.84655,2.2084 5.393,5.26399 5.73173,8.98311 0.44748,4.42526 -1.62716,8.64451 -4.11238,12.16463 -4.17588,5.85645 -9.75274,10.54826 -15.60086,14.62472 -4.0295,2.78063 -8.32565,5.1807 -12.84284,7.07073 -4.15836,2.28983 -8.87981,3.28782 -13.53971,3.28515 -7.11634,-0.021 -14.21432,-2.18064 -20.11055,-6.09905 -5.15618,-3.44465 -9.49507,-8.51276 -10.98667,-14.63595 -0.92461,-3.54022 -0.80441,-7.30402 0.1273,-10.82889 5.20436,0.24698 10.2485,-2.02084 14.12809,-5.38117 5.21212,-4.31818 8.92641,-10.08568 14.00863,-14.51922 2.16957,-1.83215 5.04387,-3.2971 7.95242,-2.62106 2.64047,0.53487 4.84232,2.22621 6.82101,3.96676 3.03856,0.91592 6.04443,2.07032 9.21289,2.44532 0.93182,0.0579 1.83018,-0.98193 1.27539,-1.85352 -1.10857,-1.43517 -2.8713,-2.11032 -4.38531,-3.01865 -5.28676,-2.8708 -10.74241,-5.40724 -16.19281,-7.94815 -0.85385,-5.58348 -4.13768,-10.75838 -8.91372,-13.80051 -2.98913,-2.01163 -6.38787,-3.34354 -9.86362,-4.24246 13.12902,2.74122 25.81907,7.98165 37.13778,15.16525 4.57595,2.90825 8.94128,6.14582 13.05753,9.6746 2.69459,0.9883 5.52566,-0.14209 8.01467,-1.18696 4.6545,-2.00002 9.19275,-4.77239 14.37708,-5.04457 1.66152,-0.0907 3.30933,0.30884 4.85434,0.87411 3.31679,0.19688 6.67608,0.63572 9.98256,0.13689 0.87535,-0.14568 1.6079,-1.19599 1.02916,-1.99627 -0.99198,-1.14712 -2.619,-1.27094 -3.98619,-1.67084 -6.01361,-1.28143 -12.22394,-1.76828 -18.35714,-1.24432 -3.44479,0.31143 -7.04606,1.06829 -9.79925,3.2843 -2.09314,0.16309 -4.29502,0.58305 -6.30078,-0.0273 0.86333,-1.49751 2.42222,-2.49716 3.80175,-3.51073 3.50681,-2.50681 7.37621,-4.43946 11.0665,-6.64343 0.47296,-0.19879 1.20301,-0.84712 0.61027,-1.2892 -0.54501,-0.30945 -1.27427,-0.0874 -1.895,-0.13139 -2.6995,0.1508 -5.34948,0.74052 -8.01907,1.1353 10.86636,-4.36192 18.95197,-14.81969 20.5633,-26.40059 0.92004,-6.16031 -0.12577,-12.60269 -3.03205,-18.11895 0.19337,-2.36501 0.50366,-4.94803 -0.68164,-7.117183 -0.53576,-0.83316 -1.50664,-1.384506 -2.50586,-1.339844 z m -91.14843,43.251957 c 3.42602,-0.006 6.80295,0.16481 10.21093,0.49804 -5.66705,-0.42976 -11.36179,-0.19509 -17.02625,0.0825 -0.21179,-0.0833 -1.54749,-0.18174 -1.03234,-0.227 2.61166,-0.2264 5.21131,-0.33885 7.84766,-0.35351 z m 149.35937,1.58789 c -5.18092,0.26059 -10.32428,1.46574 -15.07524,3.54602 -1.89628,0.86825 -3.95634,1.9823 -4.8492,3.97259 -0.6573,1.81136 0.81944,4.11979 2.81521,4.01704 2.88184,0.36428 5.82449,0.13066 8.64439,-0.54542 -0.93455,0.35196 -1.69501,1.53797 -1.00196,2.44727 0.5535,0.87288 1.73086,1.06905 2.35547,1.80859 -0.69638,0.87502 -1.93247,1.03 -2.7207,1.76758 -0.45656,0.61891 0.32214,1.20087 0.91602,1.2207 1.20381,0.47514 2.50096,0.80245 3.38671,1.8418 0.31223,0.98017 -0.51402,2.03174 -0.008,3.01367 0.24356,0.51378 0.65641,0.9317 1.13672,1.22852 -1.27523,0.23397 -2.85833,1.06983 -2.77081,2.57059 0.17563,1.76051 1.76307,2.88248 2.93481,4.0269 3.69579,3.34135 7.95283,6.3201 10.42389,10.76383 0.79625,1.45454 1.28393,3.19285 1.17969,4.80664 -1.45188,-0.56555 -2.88062,-1.61464 -4.50977,-1.39257 -1.17166,0.32737 -1.21653,1.85047 -0.73999,2.76061 0.53515,1.49201 1.40419,3.13123 1.94703,4.42884 -0.84141,-0.47243 -1.94284,-1.24475 -2.90235,-0.6543 -0.83989,0.64681 -0.57746,1.86009 -0.0779,2.63925 0.82253,1.77412 1.8722,3.42877 2.82014,5.13614 -0.64968,-0.80862 -1.93094,-1.05358 -2.7207,-0.30664 -0.80102,0.79229 -0.80319,2.03694 -0.93651,3.08824 -0.0932,1.16264 -0.0187,2.33007 0.0146,3.49379 -1.32652,0.0429 -2.27841,1.36646 -2.08984,2.64219 0.11294,2.93289 1.27538,5.68932 2.25465,8.41592 2.56764,6.60513 5.70418,12.99036 9.27302,19.11186 1.01061,1.66278 2.17193,3.23973 2.8954,5.05936 0.63607,1.35746 1.27425,2.74161 1.7449,4.18864 -3.70711,-3.41716 -6.64689,-7.59422 -10.5529,-10.80483 -1.79141,-1.51212 -3.46807,-3.21325 -5.51311,-4.38833 -0.68253,-0.52686 -1.78991,-0.54833 -2.27384,0.25176 -0.5585,0.91787 0.13295,1.96548 0.40168,2.86408 2.10328,4.61976 4.60276,9.08799 6.14129,13.94646 0.62452,2.07117 1.20144,4.3563 1.18645,6.52343 -10e-4,0.76338 -0.0832,1.52799 -0.26653,2.26954 -0.72769,-1.49184 -1.42467,-3.12515 -2.7539,-4.18164 -0.99436,-0.56833 -2.26335,0.28326 -2.31918,1.37786 -0.55481,2.59291 -0.34608,5.2358 -0.59394,7.83391 -0.0999,1.73907 -0.26052,3.48726 -0.71188,5.17495 -0.89812,-1.75736 -1.59104,-3.7535 -3.11914,-5.07617 -0.95699,-0.59988 -2.22229,0.29405 -2.1702,1.3747 -0.32569,2.70386 0.10387,5.42237 0.14214,8.13204 0.19437,3.80135 -0.0513,7.6032 -0.10144,11.40456 -0.0147,0.62506 -0.0448,1.51251 -0.25369,0.39485 -0.68769,-2.53615 -1.0669,-5.14667 -1.73084,-7.68534 -0.87709,-2.0396 -1.82789,-4.05695 -2.82347,-6.04464 -0.68031,-1.18006 -1.26294,-2.47825 -2.24153,-3.44163 -0.68386,-0.69763 -2.04117,-0.5071 -2.29531,0.50726 -0.51319,1.42822 -0.15235,2.93691 -0.099,4.38949 0.37918,4.46656 1.1352,8.91439 1.13391,13.38082 -0.61991,-1.99519 -1.19655,-4.0623 -2.30301,-5.84731 -0.5619,-0.83373 -2.01756,-0.90529 -2.41831,0.11633 -0.75817,1.5728 -0.60427,3.38647 -0.77412,5.08162 -0.22839,4.13872 -0.24859,8.24802 -0.62565,12.36225 -0.0325,-0.81227 -0.70897,-1.6239 -1.57813,-1.43359 -1.11977,0.21113 -1.23848,1.55251 -1.62109,2.41601 -1.13569,4.01553 -1.83953,8.13718 -2.78516,12.19922 -0.11864,-3.00313 -0.11401,-6.04117 -0.69531,-8.99805 -0.17572,-0.86157 -1.29894,-1.5031 -2.00391,-0.82812 -0.96634,1.15166 -0.90423,2.75964 -1.22868,4.15311 -0.0975,0.57841 -0.17859,1.1592 -0.26546,1.73947 -0.14205,-1.00339 -1.62306,-1.48432 -2.19531,-0.55664 -1.06322,1.99193 -1.2821,4.28654 -1.79558,6.45459 -0.27017,1.34528 -0.5112,2.71558 -0.74153,4.05517 -0.30787,-0.85563 -1.35069,-1.49825 -2.17968,-0.90625 -1.01808,0.7027 -1.29853,1.99792 -1.74415,3.07813 -0.23357,-1.74743 -0.44599,-3.59578 -1.34375,-5.14063 -0.65087,-0.94204 -2.192,-1.01737 -2.80859,0.008 -1.34959,1.75841 -1.77774,4.00487 -2.39445,6.08551 -1.25564,4.73667 -1.90302,9.60129 -2.59617,14.44289 -0.28123,1.60444 -0.53991,3.21602 -0.9586,4.79192 -0.23323,-2.41723 -0.19292,-5.05452 -0.12633,-7.58904 0.18108,-4.53845 1.02879,-9.15563 0.60094,-13.73518 -0.0578,-1.01794 -0.71174,-2.36128 -1.90625,-2.2168 -1.43809,0.23461 -2.10737,1.71692 -2.83328,2.8052 -3.00599,5.04373 -5.24381,10.5665 -8.84992,15.2379 -0.56332,0.75159 -1.28511,1.37905 -1.95938,2.00768 -0.60449,1.13693 -1.20709,2.27408 -1.82031,3.40625 0.95591,-2.80582 2.10584,-5.55233 2.99615,-8.373 0.21921,-0.79491 0.10974,-1.98503 -0.88287,-2.15044 -1.16731,-0.0916 -1.6547,1.19088 -2.14284,2.02671 -3.7535,7.30412 -6.76753,14.98747 -10.9117,22.09083 -0.29391,0.45614 -0.55887,0.93413 -0.89858,1.35903 0.0142,-2.02257 0.57519,-3.99284 0.67306,-6.01151 0.0968,-1.08465 0.30292,-2.35418 -0.35861,-3.29318 -0.78246,-0.81497 -2.06842,-0.0547 -2.35259,0.86566 -1.17268,2.20447 -1.98908,4.57055 -2.8603,6.90387 -0.3862,-0.84939 -1.58143,-0.80898 -2.11183,-0.1267 -0.90331,1.10688 -1.41805,2.47912 -2.06405,3.7445 -1.40943,2.98781 -2.64202,6.06554 -4.2792,8.94079 0.008,-2.27765 0.89817,-4.41835 1.20827,-6.65602 0.22002,-1.55574 0.47765,-3.20286 0.0241,-4.73655 -0.35873,-0.95364 -1.62891,-1.4653 -2.45898,-0.76563 -1.59669,1.10542 -2.32644,3.01058 -3.19882,4.66802 -0.20455,0.4702 -0.40514,1.09534 -0.44863,0.20981 -0.2169,-0.98475 -0.71935,-2.40114 -1.96779,-2.27431 -1.43542,0.22359 -1.88474,1.81034 -2.52615,2.8944 -1.30363,2.59344 -2.30138,5.26385 -3.84689,7.72474 0.0113,-2.58067 0.1898,-5.20804 -0.33908,-7.74883 -0.23065,-1.00292 -1.46846,-1.79127 -2.38358,-1.09297 -1.5236,1.04425 -2.24495,2.83891 -3.1832,4.36138 -0.21647,0.3676 -0.42226,1.0805 -0.55703,0.31049 -0.33377,-0.77019 -1.25774,-1.17356 -2.01611,-0.75248 -1.23649,0.62004 -1.92467,1.9194 -2.81006,2.92631 -0.51663,0.64412 -1.09513,1.53494 -1.57813,2.03125 -0.0768,-0.94994 -1.00283,-1.85761 -1.98482,-1.47448 -1.20562,0.45866 -1.9319,1.63618 -2.83437,2.49621 -0.39313,0.42488 -0.78401,0.85186 -1.17886,1.27515 0.22061,-0.71402 0.10656,-1.79605 -0.81445,-1.89063 -1.16796,-0.0831 -1.61673,1.20399 -2.18917,1.98212 -0.70457,1.1005 -1.35624,2.2336 -2.05692,3.33624 0.57383,-1.62055 1.2402,-3.27085 1.32732,-5.00262 0.0587,-0.87347 -0.66323,-1.75079 -1.58709,-1.56378 -1.36799,0.3598 -2.15958,1.6877 -3.08203,2.65625 -1.21575,1.42953 -2.27538,3.03125 -3.58594,4.35351 -0.8741,0.3342 -0.66858,1.45418 -1.06682,2.1461 -0.28541,0.80488 -0.50696,1.64187 -0.93513,2.38711 -0.81485,-1.83754 -0.89173,-4.02161 -2.16992,-5.64063 -0.69012,-0.83808 -1.98636,-0.71641 -2.66797,0.0625 -1.00637,1.17457 -1.52263,2.68682 -2.03154,4.12581 -0.31672,1.28178 -0.0855,2.61956 -0.19953,3.92677 -0.025,0.95602 -0.0555,1.84336 -0.14393,2.79508 -1.07071,-4.53216 -1.59318,-9.14378 -2.1543,-13.76172 -0.24102,-0.57852 -0.3078,-1.66147 -1.1875,-1.48828 -0.57518,0.51728 -0.66769,1.37649 -0.899,2.08778 -0.51631,2.96707 -1.05342,5.92176 -1.79329,8.82755 -0.20324,0.74209 -0.41597,1.48308 -0.68076,2.20576 -0.59831,-3.20623 -0.57798,-6.45709 -0.80078,-9.70117 -0.92698,1.12258 -1.62928,2.41194 -2.57422,3.51562 -0.38823,0.46352 -1.09811,0.79185 -1.57123,0.24457 -0.96333,-0.82068 -1.55297,-2.3984 -3.00333,-2.42127 -0.65417,0.17839 -1.21341,-0.42861 -1.88442,-0.46587 -1.1121,-0.28469 -2.25859,0.23119 -2.93506,1.1259 -0.55041,0.56652 -1.36371,0.98359 -2.15088,0.82722 -1.66733,-2.19316 -3.66139,-4.58468 -6.53652,-5.07648 -1.15374,-0.28878 -2.50912,0.27426 -3.51426,-0.51141 -1.26197,-1.44161 -1.80874,-3.32935 -2.69922,-4.99609 -0.426,1.29652 -0.57255,2.66588 -0.99278,3.95811 -0.68137,-0.73772 -1.06764,-1.87362 -1.54876,-2.80995 -1.22726,-2.64657 -2.0653,-5.49926 -3.64565,-7.96702 -0.54497,-0.81066 -1.95472,-1.00245 -2.42107,-0.0144 -0.66436,1.21534 -0.55653,2.67604 -0.56156,4.00934 0.31434,2.10092 0.73823,4.19417 0.81826,6.322 -2.05379,-3.24043 -3.48278,-6.89096 -5.94806,-9.86017 -0.66836,-0.79412 -2.07168,-1.1269 -2.75068,-0.1623 -0.84048,0.97649 0.0191,2.21581 0.16687,3.27927 0.59452,2.44111 1.22695,4.92854 1.09046,7.46195 -1.49304,-1.88234 -2.23996,-4.22154 -3.06915,-6.44433 -0.94541,-2.96922 -2.11662,-5.8813 -3.68512,-8.5786 -0.61813,-0.85804 -1.21019,-1.95676 -2.28674,-2.27785 -0.99641,-0.26404 -1.97161,0.56479 -2.0109,1.56699 -0.089,0.54094 -0.0977,1.04195 -0.29619,0.19979 -0.6275,-1.7459 -1.09649,-3.57821 -2.01518,-5.19842 -0.42327,-0.69039 -1.45889,-1.06517 -2.05078,-0.36328 -0.75284,0.99008 -0.38149,2.33944 -0.39002,3.4866 0.17174,3.61249 1.00219,7.14375 1.40753,10.72817 0.009,0.36552 -0.43917,-0.67872 -0.5915,-0.89591 -3.38618,-6.55694 -5.89138,-13.52763 -9.1488,-20.14516 -0.30286,-0.81571 -1.51088,-1.33282 -2.09361,-0.51354 -0.62705,0.91944 -0.006,2.03974 0.11921,3.01928 0.38924,1.61091 0.88764,3.14602 1.21477,4.75806 -1.53305,-2.15027 -2.95775,-4.68957 -4.41253,-7.03316 -2.29284,-3.8275 -4.51853,-7.72494 -7.26716,-11.24809 -0.96701,-2.9076 -1.65331,-5.96582 -3.13476,-8.67578 -0.58692,-0.8148 -2.08672,-0.55003 -2.18164,0.51172 -0.28825,2.41868 0.22997,4.82988 0.41148,7.23708 0.5116,4.72505 1.09891,9.4485 1.21539,14.16668 0.11495,0.76561 -0.20981,-0.7025 -0.29317,-0.97645 -1.08739,-4.36042 -2.13307,-8.77544 -3.02382,-13.19904 -0.68646,-3.59638 -1.09,-7.2897 -2.39568,-10.73165 -0.2739,-0.88203 -1.28528,-1.77781 -2.21362,-1.25381 -1.17549,0.79048 -1.07983,2.39201 -1.21418,3.64143 -0.26876,5.19541 0.49915,10.41471 2.02775,15.37692 0.12958,0.49326 0.22844,0.99406 0.30225,1.4986 -1.36906,-3.90652 -2.65398,-7.85074 -3.6922,-11.85878 -0.63641,-3.05609 -0.90212,-6.33332 -2.65311,-9.01466 -0.71853,-1.35736 -2.37878,-2.30125 -3.89501,-1.74433 -1.97517,0.89188 -3.00268,3.00939 -3.68584,4.95208 -0.36143,0.9994 -0.64356,2.02578 -0.85899,3.06608 -1.31921,-4.9365 -1.99422,-10.03453 -3.51421,-14.91673 -0.26674,-0.93804 -0.9179,-2.1348 -2.06392,-1.96413 -1.31262,0.35375 -1.47468,1.92048 -1.72552,3.03619 -0.29251,1.56729 -0.49186,3.1506 -0.64753,4.73725 -0.32164,-2.19983 -0.41016,-4.41874 -0.41642,-6.63835 -0.13553,-2.56023 -0.30708,-5.14709 -0.89412,-7.63704 -0.23138,-0.80824 -0.82089,-1.89835 -1.82813,-1.63672 -1.19685,0.3549 -1.28028,1.77919 -1.46676,2.80804 -0.40808,2.8006 -0.28493,5.65017 -0.0918,8.46345 0.17648,0.77539 -0.14503,0.32147 -0.29303,-0.14273 -1.25737,-3.24416 -1.51878,-6.68204 -2.0642,-10.08825 -0.72944,-5.25073 -1.12959,-10.62262 -2.41552,-15.79807 -0.32345,-1.17389 -0.82394,-2.62586 -2.10811,-3.01588 -1.35879,-0.24724 -2.25049,1.10023 -2.73828,2.16993 -1.09504,2.21852 -1.55617,4.73499 -2.3086,7.02343 -0.19566,-4.12186 -0.0428,-8.252 -0.0884,-12.37734 -0.0439,-2.48726 -0.0252,-5.01335 -0.56001,-7.45266 -0.16147,-0.97186 -1.20795,-1.93898 -2.19926,-1.38875 -0.67673,0.33866 -1.09421,1.00914 -1.39844,1.67579 0.0623,-1.783 0.24891,-3.6022 -0.043,-5.36719 -0.27554,-0.90946 -1.6511,-1.22338 -2.14638,-0.33614 -1.0937,1.67355 -1.4397,3.68663 -2.08126,5.55175 -0.40156,1.31281 -0.83165,2.64079 -0.71306,4.03192 -0.007,0.75425 -0.031,1.50817 -0.0476,2.26223 -0.20766,-3.56617 -0.2735,-7.14411 0.51221,-10.64065 0.64966,-2.54292 1.63733,-5.14114 1.27099,-7.80661 -0.22779,-1.11938 -1.81704,-1.57737 -2.55645,-0.66654 -1.64098,1.56399 -2.32114,3.8272 -2.99692,5.92427 -0.75435,2.59334 -0.98585,5.32319 -0.71225,8.00789 -0.75252,-5.74865 -1.34692,-11.49919 -1.16406,-17.29101 0.0961,-2.13894 0.20815,-4.36934 1.23828,-6.33985 1.2034,-2.7231 2.59154,-5.49348 2.78125,-8.51367 0.0143,-1.13464 -1.09583,-2.27507 -2.26004,-1.83276 -1.90594,0.5572 -3.22799,2.17383 -4.57785,3.53003 -3.92546,4.32892 -7.23515,9.24761 -9.62305,14.58593 -0.0539,-0.0491 0.18375,-1.12899 0.23921,-1.56476 0.77181,-4.38323 1.61194,-8.72092 3.25688,-12.88836 0.51646,-1.35381 1.25426,-2.63017 2.33719,-3.60664 2.197,-2.54337 3.58244,-5.6562 4.9968,-8.67266 2.41794,-5.49973 4.50513,-11.18084 5.92773,-17.01367 0.15777,-0.83019 0.36699,-2.14568 -0.66797,-2.46875 -0.80915,-0.21945 -1.49247,0.4692 -1.80273,1.14648 0.0407,-1.54018 0.13839,-3.15107 -0.33797,-4.63329 -0.35313,-1.04784 -1.76967,-1.61506 -2.63821,-0.80772 -1.659,1.19915 -2.33192,3.24308 -3.65852,4.74184 -0.77755,1.02697 -1.52752,2.07709 -2.3653,3.0566 1.06239,-3.44643 2.41152,-6.79652 3.55588,-10.21635 1.36689,-3.98822 2.77795,-8.03043 3.16924,-12.2527 0.12108,-1.07962 -0.18484,-2.12505 -0.52001,-3.13168 -0.37872,-2.41292 1.31429,-4.51565 3.03978,-5.9822 2.74602,-2.42783 6.18153,-3.91954 9.1951,-6.01493 0.76015,-0.55414 0.96923,-1.89737 0.0346,-2.38652 -1.84735,-0.89523 -3.8961,-0.0453 -5.82939,-0.0607 -0.49043,0.0218 -1.03659,0.0719 -1.55342,0.0548 1.79134,-1.2823 3.79816,-2.22183 5.67396,-3.3682 1.37691,-0.80311 2.85906,-1.60322 3.81432,-2.915 0.51361,-0.81518 0.004,-2.34404 -1.12247,-2.06786 -1.13557,0.0303 -2.2707,0.0825 -3.40683,0.0854 1.40546,-0.80485 3.0044,-1.98343 3.08398,-3.75 -0.16725,-0.58094 0.006,-0.6641 0.55202,-0.49512 0.81357,0.15432 1.9833,0.28599 2.34447,-0.68066 0.24632,-1.08496 -1.0024,-1.67131 -1.85942,-1.91556 -0.85649,-0.24407 -2.1055,-0.78848 -2.76363,0.11477 -0.30984,-0.0127 -0.71712,-0.48556 -1.08984,-0.64843 -2.25589,-1.41461 -5.14672,-1.85002 -7.65954,-0.87633 -3.94295,1.38059 -6.88688,4.58008 -9.36292,7.81449 -3.47546,4.68023 -6.19699,9.95403 -7.83887,15.55403 -0.33889,1.38085 -0.70253,2.91434 -0.18864,4.29205 0.52101,1.04289 2.00262,1.19551 2.84294,0.45013 1.54821,-1.00748 2.67593,-2.5357 3.78711,-3.95703 -0.18579,3.95951 -1.10402,7.86876 -1.94165,11.71002 -1.76617,7.76065 -4.00113,15.40604 -6.61304,22.94623 -1.04823,2.81422 -2.05873,5.78881 -3.48969,8.4815 -1.89667,2.20637 -4.0101,4.3713 -5.08236,7.12505 -0.41085,1.09097 0.18737,2.58054 1.46267,2.66103 1.9727,0.25867 3.82537,-0.7136 5.61291,-1.4005 1.61745,-0.69697 3.19378,-1.48527 4.75233,-2.30458 -3.36119,9.18837 -6.26778,18.75239 -6.37534,28.61832 -0.028,4.7597 0.81202,9.5958 3.0101,13.85434 1.24111,-0.29091 2.19489,-1.2648 2.60938,-2.44922 0.22394,5.38988 1.20944,10.73256 2.61613,15.93283 0.75068,2.50365 1.49618,5.0715 2.90926,7.29373 0.54324,0.82555 1.78059,1.45655 2.62695,0.6836 1.05978,-0.98111 0.97761,-2.58377 1.12308,-3.90907 0.0942,-2.6163 -0.0577,-5.24026 0.24143,-7.8484 0.0892,-1.17128 0.16143,-2.34647 0.3562,-3.50621 0.903,3.24928 1.44268,6.58782 2.07436,9.89777 0.94824,5.43183 1.88591,10.88652 3.58103,16.14549 0.68002,2.05272 1.37642,4.1613 2.63171,5.94307 0.6324,0.9098 2.02829,1.4791 2.94532,0.63867 1.32564,-1.15644 1.51179,-3.04407 1.87454,-4.66008 0.44224,-2.46921 0.64746,-4.97369 0.78366,-7.47664 1.36392,2.39784 2.0243,5.11369 2.78515,7.74494 1.91063,7.04253 3.05891,14.29715 5.50724,21.18704 0.71873,1.92123 1.57889,4.03944 3.4187,5.14093 1.14313,0.56776 2.54225,0.18534 3.4686,-0.62369 -0.20324,-2.86233 -0.53671,-5.65887 -0.36524,-8.52343 1.84524,3.43122 3.07595,7.14328 4.58585,10.72521 1.66285,4.22403 3.38163,8.46141 5.84022,12.29968 1.14673,1.86678 2.29287,3.82248 3.98274,5.2498 0.81852,0.64947 2.25895,0.33664 2.44666,-0.78055 0.43648,-1.7891 -0.20079,-3.60799 -0.55336,-5.35547 -0.43725,-1.76789 -0.96989,-3.51027 -1.54429,-5.23828 2.14354,2.12184 3.61343,4.80235 5.21251,7.33365 3.91754,6.52494 7.46173,13.31636 12.15131,19.33999 1.70156,2.15172 3.62263,4.13913 5.85185,5.74867 2.19698,1.77961 4.14144,3.93816 6.66714,5.26909 0.92101,0.38766 2.10811,-0.47973 1.78822,-1.49439 -0.45446,-1.99309 -1.67867,-3.68692 -2.51102,-5.52925 -0.78405,-1.54323 -1.53983,-3.1021 -2.22251,-4.69315 2.44096,0.7389 4.47111,2.37603 6.50781,3.84765 7.46354,5.67799 14.06505,12.46629 21.98431,17.54148 1.96621,1.21326 4.08155,2.15104 6.16217,3.14602 -1.06038,-1.63099 -2.1722,-3.25629 -3.28515,-4.82812 4.32547,3.32187 8.52959,6.87034 13.32541,9.51223 1.90291,0.92173 3.98763,1.9985 6.16676,1.60679 0.55236,-0.0326 1.02858,-0.55493 1.56447,-0.21277 0.53686,0.28344 1.35641,-0.1253 1.0625,-0.78125 -0.27749,-0.36426 -0.42537,-0.62318 -0.19358,-1.05027 -0.24285,-1.71934 -0.76601,-3.38746 -0.97922,-5.12627 -0.17312,-1.35704 -0.35552,-2.78104 -0.035,-4.12203 0.23242,-0.62814 0.91431,0.004 1.3072,0.11139 1.84574,0.95884 3.46443,2.56493 5.0781,3.96584 1.96279,1.79157 3.89909,3.61197 5.84982,5.41665 -0.27186,-2.38807 -1.00451,-4.68758 -0.92187,-7.10156 -0.0833,-0.70799 0.26041,-0.90245 0.76562,-0.35743 2.51949,1.89708 4.43656,4.46648 6.55498,6.75508 2.1527,2.42541 4.25233,4.97903 6.9225,6.85541 0.59501,0.23842 0.99465,0.68669 1.31464,1.22801 0.67406,1.05312 2.15342,1.94785 3.33093,1.12635 0.89832,-0.5798 1.27604,-1.64346 1.5625,-2.62109 0.57268,1.63248 2.71203,2.16861 4.17685,1.43231 2.98328,-1.18894 5.2485,-3.5766 7.55991,-5.71824 4.66435,-4.52219 8.75495,-9.61123 13.56207,-13.98751 0.39142,-0.30505 0.93973,-0.90521 1.32617,-0.9043 -0.10007,1.48641 -0.54396,2.93393 -1.05469,4.32227 -0.811,1.83706 -1.97551,3.58485 -2.26172,5.60547 -0.10051,0.88606 0.63255,1.75823 1.56055,1.5957 1.28893,-0.25114 2.20785,-1.32076 3.19571,-2.10566 3.29028,-2.88513 6.15766,-6.21879 9.75351,-8.70294 0.43541,-0.27231 -0.0596,0.80321 -0.0566,1.03516 -0.68386,2.15241 -1.51023,4.22563 -2.70808,6.10683 -0.73717,1.44896 -1.75186,3.03134 -1.37591,4.7252 0.45949,1.27159 2.12874,1.33535 3.17147,0.79526 3.15547,-1.26621 5.85632,-3.3882 8.66108,-5.2638 3.13529,-2.20669 6.18997,-4.54221 9.46433,-6.54708 -0.0924,1.06283 1.24434,1.60117 2.14258,1.42187 2.10018,-0.49571 3.88779,-1.8069 5.69351,-2.9307 5.44943,-3.76877 10.52735,-8.05063 15.48501,-12.43783 2.71239,-2.44781 5.39313,-4.94693 7.87889,-7.62208 0.95622,-1.29154 1.48509,-2.83819 2.37449,-4.17564 0.79188,-1.37085 1.61198,-2.7807 2.74778,-3.88453 0.0934,2.46396 -0.74981,4.92642 -1.51287,7.29704 -0.78077,2.2068 -1.75403,4.34463 -2.909,6.3807 -0.16296,1.21422 0.003,2.88334 1.36523,3.33398 1.67377,0.3471 3.0811,-0.9431 4.26191,-1.94353 4.31808,-4.0004 7.8255,-8.77709 11.18267,-13.58587 2.69368,-3.94312 5.32215,-8.01383 6.83159,-12.57947 0.55984,-1.44958 1.20114,-2.87848 2.05586,-4.18019 0.16185,2.49555 -0.46743,4.91873 -1.21067,7.29489 -0.52666,1.60266 -1.30966,3.19503 -2.25222,4.68362 0.86923,1.11691 2.49617,1.91444 3.83985,1.14453 2.27563,-1.2711 3.45749,-3.73303 4.68982,-5.91183 3.62978,-6.86063 5.97888,-14.29902 9.32775,-21.28934 -0.28634,2.52248 -0.61437,5.10696 -0.18164,7.62891 0.16357,1.00825 1.26523,1.95216 2.27344,1.38086 1.42412,-0.75501 1.96631,-2.41574 2.65333,-3.76742 2.01385,-4.57812 3.29834,-9.46983 3.95603,-14.42195 0.2853,-2.17316 0.13271,-4.36232 -0.0405,-6.53571 -0.11061,-2.51873 -0.27416,-5.12182 0.55811,-7.48781 0.26745,-0.35883 0.63078,0.46173 0.87188,0.67757 1.24317,1.87016 1.82002,4.09524 2.36605,6.24831 0.48821,2.1245 0.71748,4.29492 1.01597,6.45107 1.88878,-2.29613 3.33658,-4.91305 4.45181,-7.66226 0.90179,-2.1506 1.73688,-4.32868 2.60288,-6.49399 -0.0969,1.85016 -0.31396,3.78457 -0.48047,5.66797 1.12244,0.87308 3.00849,0.78571 3.74608,-0.54179 1.42943,-2.14931 1.54978,-4.82846 1.89772,-7.30948 0.69369,-6.25839 0.50074,-12.55552 1.27222,-18.7874 0.0997,-0.25293 0.0745,-1.54742 0.39367,-0.81241 0.64641,1.27091 1.2872,2.59431 1.40148,4.03482 0.43901,2.71555 0.78182,5.51373 1.92349,8.04092 0.41344,0.88612 1.71672,1.44331 2.45071,0.60261 1.09656,-1.2316 1.12285,-2.99415 1.40079,-4.53644 0.74996,-6.35103 0.67471,-12.79121 0.0369,-19.14917 -0.0825,-0.72212 -0.1818,-1.44209 -0.30235,-2.15885 2.86607,3.81311 4.49075,8.34902 6.82353,12.46935 0.42765,0.78537 1.46245,1.3965 2.28975,0.80018 1.02909,-1.16895 0.70142,-2.84604 0.7654,-4.27253 -0.0622,-2.44346 -0.10728,-4.90454 -0.45906,-7.32356 -0.665,-3.16057 -1.28473,-6.32806 -0.82977,-9.54453 0.0724,-0.56834 0.511,0.52097 0.66166,0.68807 1.27145,2.52762 2.04821,5.2116 2.84615,7.93693 1.18743,0.64068 2.79414,-0.1174 3.03537,-1.44761 0.71419,-2.57187 0.23882,-5.27758 -0.0892,-7.87228 -0.99909,-6.3628 -2.76608,-12.6412 -5.53845,-18.46646 -1.09191,-2.29602 -2.5487,-4.43231 -4.443,-6.14022 -1.20247,-1.30446 -2.43361,-2.47013 -3.21664,-4.08515 2.99478,0.45274 5.69514,1.94894 8.37344,3.28083 2.60866,1.37189 5.08779,2.97249 7.49765,4.66643 -0.20397,-2.29442 -0.8889,-4.5131 -1.901,-6.5764 -3.76711,-8.14485 -8.24243,-16.07912 -10.15682,-24.9091 -0.28797,-1.59757 -0.65599,-3.25606 -0.41316,-4.87384 0.88803,-2.73241 -0.0597,-5.61359 -0.95657,-8.21278 -2.14037,-5.83247 -5.53288,-11.11919 -8.26776,-16.64272 1.92493,1.28945 3.51329,2.97932 5.113,4.63581 1.4875,1.41464 3.05624,2.88667 5.00614,3.6181 1.10358,0.37745 2.5233,-0.21574 2.68855,-1.45485 0.41903,-1.9452 -0.43459,-3.87075 -1.07884,-5.66772 -2.32477,-5.68028 -5.76947,-10.8829 -9.92102,-15.39255 -2.5685,-2.70758 -5.60005,-5.22736 -9.26659,-6.22419 -1.64839,-0.46839 -3.37808,-0.27579 -5.0139,0.1397 2.78926,-1.10706 5.51266,-2.48698 7.875,-4.35156 1.04253,-0.84549 2.23262,-2.08356 1.9082,-3.54493 -0.47103,-1.47463 -2.22983,-1.79445 -3.57653,-1.87622 -0.51751,-0.0431 -1.03736,-0.0392 -1.55628,-0.0339 z m -295.74804,0.82422 c -1.34758,0.0412 -3.09015,0.4759 -3.45889,1.97809 -0.30496,1.72442 1.10868,3.09408 2.30779,4.10838 3.69207,2.91373 8.23162,4.74595 12.8987,5.28285 2.04503,0.164 4.1509,0.31618 6.16614,-0.14543 1.2579,-0.25193 2.4809,-1.44118 2.10297,-2.8093 -0.43477,-1.8605 -2.13859,-3.02666 -3.57726,-4.10795 -2.4121,-1.63526 -5.11894,-3.05986 -8.06055,-3.33985 -1.53883,0.0501 -2.99356,-0.55652 -4.51556,-0.70573 -1.277,-0.19874 -2.57035,-0.30341 -3.86334,-0.26106 z m 150.81835,3.89648 c 3.96984,0.0404 8.01789,0.42339 11.83594,1.45312 3.82788,1.02916 7.66556,2.80162 10.67055,5.51332 0.51927,0.46097 1.01482,0.94908 1.4857,1.45934 -3.18567,-0.13818 -6.37605,-1.02903 -9.53515,-1.64706 -4.67906,-0.99503 -9.49379,-2.0117 -14.29394,-1.38096 -0.76754,0.23625 -1.40859,-0.43229 -2.16613,-0.4934 -3.11882,-0.73756 -6.34855,-0.15684 -9.46382,0.30528 -5.34196,0.8933 -10.55529,2.49585 -15.9108,3.07571 -1.02104,0.0451 -2.23924,0.26148 -3.13406,-0.40058 -0.34306,-0.95663 0.40113,-1.87773 0.78515,-2.70899 0.14519,-0.49279 0.5297,-0.76987 1.03537,-0.79087 9.37698,-2.51188 18.93697,-4.38912 28.69119,-4.38491 z m -70.50781,5.14453 c 2.54154,0.0678 5.19564,0.0434 7.57857,1.03867 0.24586,0.39867 -0.75318,0.36324 -1.03755,0.34805 -2.13979,0.29269 -4.26931,-0.20875 -6.38787,-0.44556 -1.2416,-0.23107 -2.49517,-0.41311 -3.71565,-0.74389 1.14904,-0.14989 2.35767,-0.16464 3.5625,-0.19727 z m -27.26562,27.80078 c 1.52696,0.43256 2.11066,2.10823 2.73066,3.40155 2.3521,5.90119 3.3607,12.24434 5.81947,18.10866 0.93354,2.31733 2.14442,4.57005 3.89323,6.37846 -1.00997,7.80914 0.80959,15.62495 3.0234,23.07008 2.03916,7.0631 4.4236,14.09046 4.84964,21.4475 0.0307,1.75906 0.28049,3.60507 -0.35351,5.29102 -2.0193,-2.98916 -2.99422,-6.5249 -4.49516,-9.77932 -0.68025,-1.73523 -1.98337,-3.11013 -2.77008,-4.79099 -4.1132,-7.66253 -5.96909,-16.24102 -7.98483,-24.62702 -1.48453,-6.2821 -2.81379,-12.66914 -5.46668,-18.58714 -0.84829,-1.82538 -1.9114,-3.53863 -2.90239,-5.2878 -0.41566,3.75195 -0.40088,7.56871 -1.82617,11.08594 -0.28065,0.52444 -0.60132,1.43681 -1.33204,1.30273 -1.56059,-1.03095 -2.07824,-2.97956 -2.64453,-4.65429 -0.91788,-3.39939 -1.09891,-7.1256 -0.0703,-10.46805 0.43158,-1.53677 1.321,-2.86578 2.21622,-4.16125 1.66036,-2.65515 3.30982,-5.48591 5.91857,-7.32383 0.42011,-0.24822 0.89537,-0.45587 1.39453,-0.40625 z m 187.33593,0.0156 c 2.43415,0.15389 4.40041,1.85783 6.1108,3.44352 3.01463,2.98926 5.42995,6.75058 6.53055,10.91387 0.63185,2.37178 0.59573,4.98446 -0.52375,7.20903 -0.82549,2.303 -1.37505,4.73955 -2.62911,6.86183 -0.26884,0.66767 -0.52963,0.0681 -0.67646,-0.35624 -1.51648,-3.84125 -2.19395,-7.96816 -3.90348,-11.74188 -0.3816,-0.91317 -0.76241,-1.82667 -1.14292,-2.74029 -4.02537,15.86914 -7.44533,32.03559 -13.74609,47.1836 -2.51165,5.98914 -5.4827,11.79754 -9.07032,17.21679 -0.41908,0.24127 -1.16687,0.22508 -1.08678,-0.44444 -0.35795,-2.38584 0.46401,-4.76801 0.81698,-7.08114 0.35375,-1.70546 1.13878,-3.28266 1.60081,-4.96028 4.64528,-14.62852 5.81644,-30.15874 10.66899,-44.66843 1.30971,-3.85639 2.8915,-7.62264 4.79493,-11.22461 -0.33611,-2.65318 -0.73895,-5.52958 0.23046,-8.12696 0.36488,-0.79227 1.08693,-1.53713 2.02539,-1.48437 z m -240.40625,13.23633 c -1.63531,0.55088 -2.36943,2.29193 -3.12127,3.69854 -0.88366,1.83361 -1.32937,3.82763 -1.79279,5.79755 2.42322,-2.15057 5.00446,-4.37429 6.29178,-7.42605 0.35478,-0.83705 -0.064,-2.1075 -1.11209,-2.08176 -0.0886,0.003 -0.18135,-0.0357 -0.26563,0.0117 z m 293.83594,10.45703 c -0.79764,0.14972 -1.08187,1.06451 -0.78924,1.75444 0.10368,0.78339 0.65943,1.58622 1.52948,1.53853 0.9117,0.0384 1.31411,-1.02781 0.95507,-1.76368 -0.20874,-0.73704 -0.85378,-1.66366 -1.69531,-1.52929 z m 13.89453,8.08789 c -0.52801,0.34025 0.27277,-0.34303 0,0 z m -162.26953,1.60351 c 3.20234,0.32356 6.24142,1.54581 9.2425,2.73684 4.48999,1.91539 8.95901,4.07585 12.7536,7.18894 0.6139,0.55458 1.30826,1.18048 1.5039,2.00782 -0.53033,0.63709 -1.52366,0.59715 -2.28515,0.75195 -2.81699,0.34621 -5.64344,-0.28137 -8.45888,0.0524 -7.49628,0.47183 -15.08363,0.49253 -22.61026,0.10983 -2.9965,-0.0411 -6.08667,0.17388 -8.98529,-0.71818 -0.0856,-0.27984 0.56459,-0.66802 0.80869,-0.93186 2.27994,-1.70086 4.84195,-2.9916 7.29939,-4.40348 3.58213,-2.01041 7.23192,-4.02729 10.26861,-6.82556 l 0.46289,0.0312 z m 73.86719,1.10547 c 1.60602,0.13494 2.28161,1.89181 2.60192,3.2438 0.62376,2.87995 0.35111,5.93173 -0.42419,8.80894 -1.42042,-2.71705 -4.4924,-4.22051 -7.48532,-4.27784 -2.86903,-0.13694 -6.04455,0.82733 -7.74691,3.27087 -1.19968,1.84813 -0.90392,4.32276 0.29705,6.0931 0.87034,1.34091 1.1428,2.95026 1.70853,4.42673 2.98146,9.24272 4.96206,18.89011 4.51767,28.63753 -0.20429,4.1247 -0.91702,8.35439 -2.2832,12.30664 -1.7999,5.28496 -4.96321,10.28378 -9.1097,14.12721 -6.43556,5.90595 -14.93551,9.1136 -23.37516,10.69077 -11.33052,2.1196 -22.91248,1.7127 -34.40614,2.39115 -9.96419,0.27465 -20.02663,-0.64623 -29.59728,-3.33804 -8.3905,-2.42325 -16.58911,-6.40403 -22.62213,-12.85687 -1.94433,-1.99734 -3.48761,-4.32492 -5.00003,-6.65194 -3.16486,-4.07405 -4.67798,-9.22039 -4.92014,-14.32631 -0.4638,-9.70811 2.45533,-19.09289 4.29027,-28.54251 0.87032,-4.59696 1.69684,-9.37437 0.70906,-14.02276 -1.25945,-1.80911 -3.3129,-3.48811 -5.65625,-3.11523 -2.84644,0.4794 -4.70887,2.8893 -6.6806,4.75801 -0.45027,0.61342 -0.61226,0.12782 -0.64213,-0.42844 -0.31151,-2.29512 -1.03998,-4.53205 -1.08997,-6.86588 0.0349,-1.09085 -0.11122,-2.35144 0.58457,-3.27229 0.72572,-0.86131 1.95102,-0.34444 2.8544,-0.12216 2.85533,1.05872 5.39381,2.79976 7.97227,4.39014 2.79815,1.74195 5.54221,3.63439 8.59164,4.91386 23.2464,8.91722 48.61393,12.5837 73.40169,9.80243 16.28268,-1.85795 32.30701,-6.661 46.60969,-14.73036 1.60071,-1.96877 3.30682,-4.06099 5.69366,-5.08635 0.3829,-0.14545 0.79507,-0.23958 1.20673,-0.2242 z m -21.4082,27.02539 c -2.99007,0.38322 -5.18108,2.78243 -6.8086,5.12891 -1.90426,2.83776 -3.20059,6.0991 -3.65234,9.49219 -1.84701,-2.32598 -4.43567,-4.48337 -7.54722,-4.53209 -2.73181,0.0217 -5.03302,1.97383 -6.34565,4.24091 -0.90268,1.42602 -1.53726,3.00494 -2.04463,4.60954 -4.4441,-5.74491 -9.65522,-11.20455 -16.31313,-14.34576 -4.28176,-1.97381 -9.3576,-2.54516 -13.81343,-0.7973 -0.56572,0.15908 -1.1006,0.53605 -1.65134,0.63938 -2.93227,-0.85958 -6.26887,0.12234 -8.28932,2.41032 -2.93495,3.02996 -4.30647,7.12455 -5.8326,10.96217 -0.4531,1.2541 -0.97874,2.60298 -1.69979,3.64876 -1.62693,-2.4311 -2.0686,-5.39177 -2.93616,-8.13236 -0.5859,-1.82193 -1.49363,-3.87193 -3.39978,-4.61568 -1.84574,-0.5777 -3.59592,0.66221 -4.8783,1.86227 -1.68579,1.50808 -3.00271,3.47228 -4.98889,4.61429 -0.76468,0.0766 -0.95533,-0.88626 -1.18929,-1.43217 -0.27913,-1.11145 -0.0122,-2.2764 -0.21433,-3.40563 -0.3264,-3.55043 -1.91533,-7.25377 -5.10026,-9.11814 -2.71775,-1.60592 -6.48844,-1.29876 -8.74316,0.9792 -2.56754,2.46312 -3.09631,6.3385 -2.53356,9.70818 0.36252,1.84521 0.79879,3.67496 1.09519,5.53315 1.73487,8.61209 6.5293,16.51694 13.23241,22.17506 8.34019,7.14695 19.02899,11.17053 29.85473,12.48565 4.17337,0.52913 8.38542,0.43334 12.58101,0.56637 5.13057,0.0897 10.25269,-0.3456 15.3424,-0.94408 12.69097,-0.67046 25.23739,-6.3588 33.50104,-16.11986 5.85855,-6.90698 9.25236,-15.98392 8.9401,-25.06849 -0.1899,-2.59043 -0.62471,-5.24053 -1.81335,-7.5753 -0.90108,-1.7579 -2.68023,-3.19381 -4.75175,-2.96949 z m -80.97657,28.28321 c 4.78109,0.74662 9.28767,2.55068 13.86999,4.13377 6.67724,2.3728 13.57014,4.74321 20.74706,4.65306 5.37174,-0.0815 10.74532,-2.00384 14.75244,-5.62204 0.72093,-0.57318 1.29796,-1.39529 2.27086,-1.52516 2.39574,-0.75306 4.85729,-1.56374 7.42606,-1.45213 0.3765,0.007 0.77945,0.25324 0.42773,0.64648 -0.93869,2.0632 -2.79807,3.49485 -4.46102,4.95509 -4.11513,3.30375 -8.72934,6.02656 -13.69616,7.73865 -2.21698,0.72374 -4.47698,1.1491 -6.82782,0.88243 -1.23639,0.0132 -2.44131,0.3065 -3.65828,0.28284 -7.26922,0.24157 -14.51235,-2.24502 -20.6282,-6.12659 -3.74874,-2.37597 -7.24265,-5.32058 -10.27344,-8.57226 z m -8.99414,114.79296 c 1.35562,1.84777 2.55096,3.80882 3.69141,5.79493 -1.91542,-1.70597 -3.29058,-3.97177 -4.16211,-6.36914 0.1569,0.1914 0.3138,0.38281 0.4707,0.57421 z" />
    </g>
  </g>
  <g
     id="layer4"
     style="display:none" />
  <g
     id="layer5"
     style="display:none" />
  <g
     id="layer2"
     style="display:none" />
</svg>
