<?xml version="1.0" encoding="UTF-8" standalone="no"?>
<!-- Created with Inkscape (http://www.inkscape.org/) -->

<svg
   width="226"
   height="261"
   viewBox="0 0 59.795831 69.056252"
   version="1.1"
   id="svg5"
   xmlns="http://www.w3.org/2000/svg"
   xmlns:svg="http://www.w3.org/2000/svg">
  <defs
     id="defs2" />
  <g
     id="layer1">
    <g
       id="g4040"
       transform="matrix(0.76446954,0,0,0.76068254,95.284786,-87.100335)">
      <ellipse
         style="fill:#fff0a3;fill-opacity:1;stroke:none;stroke-width:0.548094;stroke-linejoin:round;stroke-dasharray:0.548094, 1.09619;stroke-dashoffset:1.26062;paint-order:markers fill stroke;stop-color:#000000"
         id="path1959"
         cx="-84.913475"
         cy="158.67624"
         rx="34.491657"
         ry="39.190365" />
      <ellipse
         style="fill:#ffffff;fill-opacity:1;stroke:none;stroke-width:0.609726;stroke-linejoin:round;stroke-dasharray:0.609726, 1.21945;stroke-dashoffset:1.40237;paint-order:markers fill stroke;stop-color:#000000"
         id="path2711"
         cx="-98.879608"
         cy="140.74344"
         rx="9.922883"
         ry="10.764634" />
      <ellipse
         style="fill:#ffffff;fill-opacity:1;stroke:none;stroke-width:0.609726;stroke-linejoin:round;stroke-dasharray:0.609726, 1.21945;stroke-dashoffset:1.40237;paint-order:markers fill stroke;stop-color:#000000"
         id="ellipse2811"
         cx="-72.153625"
         cy="141.18156"
         rx="9.922883"
         ry="10.764634" />
      <path
         style="fill:#ffffff;fill-opacity:1;stroke:none;stroke-width:0.555625;stroke-linejoin:round;stroke-dasharray:0.555625, 1.11125;stroke-dashoffset:1.27794;paint-order:markers fill stroke;stop-color:#000000"
         d="m -109.1676,153.12673 15.845734,10.15003 15.699687,-0.36511 17.598254,-9.41981 -1.971587,8.25146 -15.991777,7.52124 -15.334577,-0.43813 -17.014084,-9.78492 z"
         id="path2846" />
      <path
         style="fill:#ffffff;fill-opacity:1;stroke:none;stroke-width:0.555625;stroke-linejoin:round;stroke-dasharray:0.555625, 1.11125;stroke-dashoffset:1.27794;paint-order:markers fill stroke;stop-color:#000000"
         d="m -106.10069,177.00485 -1.6795,1.67951 2.92087,4.16224 7.156144,5.11153 14.239253,2.99389 15.480622,-4.81944 3.505048,-4.08921 0.01027,-5.43222 -8.855573,5.08852 -11.74685,2.97247 -10.769455,-2.45908 z"
         id="path2961" />
      <path
         style="fill:#ff5555;fill-opacity:1;stroke:none;stroke-width:0.555625;stroke-linejoin:round;stroke-dasharray:0.555625, 1.11125;stroke-dashoffset:1.27794;paint-order:markers fill stroke;stop-color:#000000"
         d="m -105.88162,164.15302 -5.91476,5.33059 6.53168,9.16405 20.194296,6.02448 16.356886,-4.16224 7.594266,-7.59427 2.482742,-6.27987 -5.914766,-1.6795 -21.541433,8.17844 z"
         id="path3475" />
      <path
         style="fill:#114350;fill-opacity:1;stroke-width:0.052399"
         d="m -86.61066,203.15394 c -5.670352,-0.39657 -11.299013,-1.77528 -16.30416,-4.52139 -3.29935,-0.83914 -5.4404,-3.77791 -8.28659,-5.53827 1.64573,-2.36495 3.27865,-3.17254 5.27448,-0.55557 9.774639,7.80754 23.919252,9.30535 35.171883,3.92014 3.537439,-0.57296 6.480376,-5.60939 9.308167,-5.15511 4.898704,2.58776 -2.613148,4.68548 -4.57105,6.64858 -6.290522,3.53168 -13.382698,5.31199 -20.59273,5.20162 z m -0.0399,-4.45303 c -3.64983,-0.18999 -5.408157,-0.64089 -7.563006,-1.6582 -7.060294,-2.02285 -13.542394,-6.05956 -18.325814,-11.65292 -6.73961,-7.64141 -10.03686,-18.03079 -9.46138,-28.1701 0.21513,-14.57325 8.39359,-28.99363 21.49431,-35.71003 10.562621,-5.91024 24.315735,-4.83155 34.110122,2.16471 8.051624,5.38231 13.872667,13.78657 16.374424,23.12515 3.742584,12.77448 1.532265,27.48868 -7.120247,37.82984 -3.869826,5.50992 -9.89573,8.79809 -15.916939,11.43704 -4.13796,2.10965 -8.990587,2.7885 -13.59147,2.63451 z m 4.7034,-4.19992 c 13.934871,-1.33262 25.842921,-12.60008 28.993955,-26.083 3.047869,-11.50291 0.02673,-24.20223 -7.085025,-33.62198 -5.997885,-7.99778 -15.496465,-13.85116 -25.716105,-13.5353 -12.831957,0.34763 -24.695885,9.2647 -29.254155,21.16529 -2.30901,5.68567 -3.87319,11.94251 -2.92398,18.09725 -1.17039,1.43628 0.2251,6.0624 0.76278,8.58389 3.73481,13.65158 16.32331,25.27177 30.845055,25.49971 1.459146,0.001 2.921669,0.004 4.377475,-0.10586 z m -4.24432,-2.58035 c -8.947908,-0.31623 -17.93086,-4.79959 -22.44477,-12.74185 -2.98187,-4.66844 -5.01315,-10.03827 -5.32792,-15.58871 -1.95197,0.73314 -1.56987,-1.28794 -1.14684,-2.23278 -2.58414,0.46605 0.82078,-5.19634 1.69732,-6.83169 2.45848,-4.9365 7.90667,-2.07394 10.54433,1.04467 5.508843,4.46286 12.734082,7.0239 19.839256,6.4673 7.479125,-0.75138 14.19273,-4.74541 19.723721,-9.63188 3.992499,-2.75417 6.891426,2.3623 8.164783,5.48094 0.79174,1.90642 2.523402,5.71091 1.98977,6.72813 -1.542,-1.2559 -4.877668,-7.38121 -3.901965,-2.20569 0.41916,3.35728 -0.672556,6.60331 -0.717965,9.92304 -1.873121,1.71436 -2.198654,4.86938 -3.39083,7.18773 -3.641661,6.82603 -11.301383,10.56908 -18.63517,11.94919 -2.111872,0.36547 -4.253063,0.49604 -6.39372,0.4516 z m 3.56313,-3.2688 c 6.952095,-0.54867 14.356846,-3.80829 17.72224,-10.21514 -7.373706,6.88449 -18.306568,9.00546 -27.951837,6.52267 -4.591798,-1.01357 -8.814923,-3.3118 -12.406753,-6.31171 4.56323,7.59089 14.162564,10.7305 22.63635,10.00418 z m -0.70738,-5.81451 c 7.342949,-0.43793 14.98222,-3.32484 19.690777,-9.16455 1.620979,-2.27346 3.549998,-6.52735 -0.889267,-6.45764 -3.355805,3.64392 -7.375309,6.79004 -12.252977,8.05685 -3.488272,0.78926 -7.443084,0.69531 -7.541403,5.30196 -1.84287,4.7683 -1.55711,-5.23337 -4.78285,-4.30401 -6.133326,-0.90063 -12.00749,-3.69872 -16.1082,-8.42559 -2.32012,-1.80823 -5.71888,0.98041 -2.98899,3.5361 2.50186,5.43914 8.380733,8.30168 13.768072,10.14841 3.586823,1.06721 7.368458,1.49833 11.104838,1.30847 z m 1.23137,-15.37769 c 7.062621,-0.71043 14.449494,-3.18251 19.417699,-8.44878 1.466749,-1.50229 2.490545,-5.87454 -0.239719,-2.66169 -7.270858,6.57619 -17.421337,10.06567 -27.172828,8.38504 -7.092856,-1.12932 -13.523322,-4.83317 -18.601852,-9.83774 -1.60639,2.30136 3.65765,6.9043 6.55426,8.18665 6.043565,3.4504 13.110517,4.98005 20.04244,4.37652 z m -4.16571,-6.47655 c -3.826036,-0.60619 -8.649065,-2.769 -9.11847,-7.08985 -1.751079,-0.80556 -6.92207,1.02625 -9.33759,-1.74214 -6.37364,-3.67628 -7.99648,-13.20466 -2.99822,-18.67404 3.44271,-4.82222 10.703207,-6.78397 15.660186,-3.0713 3.859505,2.70333 6.402269,7.71784 5.711924,12.452 -2.876475,2.27029 5.419396,2.24018 2.467293,-0.44329 -0.790078,-6.83016 4.69252,-14.52529 12.007741,-13.93099 8.349228,0.80022 14.563562,10.88592 10.836356,18.61862 -1.729755,4.03208 -5.699976,7.27573 -10.28083,6.81947 -4.899915,-2.1959 -2.966202,5.33832 -7.49617,5.75273 -2.334698,1.02755 -4.898123,1.56377 -7.45222,1.30879 z m 2.28724,-3.60803 c 2.85936,-0.57699 6.594099,-4.10018 4.406547,-7.25889 -1.442978,-4.01414 -6.517185,-2.90229 -9.672529,-2.40522 -4.354454,2.15183 -3.744594,8.35531 1.083292,9.35924 1.337293,0.47349 2.791011,0.47318 4.18269,0.30487 z m -13.39143,-7.04427 c 6.102749,-1.46813 9.512283,-9.52442 5.654149,-14.70635 -2.432806,-4.26374 -8.656679,-5.10026 -12.211309,-1.75844 -4.42205,3.39173 -4.65005,10.5264 -0.45756,14.18056 1.79249,1.7821 4.489137,2.88563 7.01472,2.28423 z m -2.00625,-6.39477 c -4.82758,-1.5362 0.850189,-8.12061 3.076492,-3.53361 1.050311,1.95922 -1.04201,4.19723 -3.076492,3.53361 z m 28.92421,6.44143 c 6.214536,-1.19955 8.932503,-9.48581 5.172004,-14.41576 -2.28271,-3.91137 -7.844985,-5.60783 -11.573904,-2.70455 -4.425539,2.87461 -5.430234,9.66049 -1.674,13.50691 1.897402,2.4548 4.889539,4.20523 8.0759,3.6134 z m -2.45675,-6.43954 c -4.877236,-1.9267 1.410813,-8.04524 3.203436,-3.23823 0.735677,1.96172 -1.26283,3.89 -3.203436,3.23823 z"
         id="path1018" />
    </g>
  </g>
</svg>
